<?xml version="1.0" encoding="utf-8"?>
<!-- Generator: Adobe Illustrator 27.0.0, SVG Export Plug-In . SVG Version: 6.00 Build 0)  -->
<svg version="1.1" id="图层_1" xmlns="http://www.w3.org/2000/svg" xmlns:xlink="http://www.w3.org/1999/xlink" x="0px" y="0px"
	 viewBox="0 0 5359 1059" style="enable-background:new 0 0 5359 1059;" xml:space="preserve">
<style type="text/css">
	.st0{fill:#28C5E5;}
</style>
<g>
	<g>
		<g>
			<g>
				<g id="_x3C_镜像重复_x3E__00000011729330719076363990000002905053333421247621_">
					<g>
						<g>
							<defs>
								<polygon id="SVGID_1_" points="-0.3,1.3 -0.3,1.3 532.1,1.3 532.1,509.8 -0.3,509.8 								"/>
							</defs>
							<clipPath id="SVGID_00000073717759963946789070000012407728955452144791_">
								<use xlink:href="#SVGID_1_"  style="overflow:visible;"/>
							</clipPath>
						</g>
					</g>
				</g>
				<g id="_x3C_镜像重复_x3E__00000048494194433512435340000000377608603530741134_">
					<g>
						<g>
							<defs>
								<polygon id="SVGID_00000132803514601180069890000013703280897226201485_" points="1099.8,1.3 1099.8,1.3 567.5,1.3 
									567.5,509.8 1099.8,509.8 								"/>
							</defs>
							<clipPath id="SVGID_00000167392376974120793990000015941322576012272798_">
								<use xlink:href="#SVGID_00000132803514601180069890000013703280897226201485_"  style="overflow:visible;"/>
							</clipPath>
						</g>
					</g>
				</g>
			</g>
		</g>
		<g>
			<g>
				<g id="_x3C_镜像重复_x3E__00000022539077530676287670000004346389949736569744_">
					<g>
						<g>
							<defs>
								<polygon id="SVGID_00000178174933808298586430000005608701368352894889_" points="-0.6,1059.8 -0.6,1059.8 531.7,1059.8 
									531.7,551.2 -0.6,551.2 								"/>
							</defs>
							<clipPath id="SVGID_00000033343559891044091460000011793538750939414169_">
								<use xlink:href="#SVGID_00000178174933808298586430000005608701368352894889_"  style="overflow:visible;"/>
							</clipPath>
						</g>
					</g>
				</g>
				<g id="_x3C_镜像重复_x3E__00000150813482749717110820000013549444449238318474_">
					<g>
						<g>
							<defs>
								<polygon id="SVGID_00000049933235212924648420000009116281761236591539_" points="1099.5,1059.8 1099.5,1059.8 
									567.1,1059.8 567.1,551.2 1099.5,551.2 								"/>
							</defs>
							<clipPath id="SVGID_00000136407905451902955990000013808302652000510087_">
								<use xlink:href="#SVGID_00000049933235212924648420000009116281761236591539_"  style="overflow:visible;"/>
							</clipPath>
						</g>
					</g>
				</g>
			</g>
		</g>
	</g>
</g>
<polygon class="st0" points="296.8,530.5 531.8,455 531.8,606.9 "/>
<polygon class="st0" points="802.2,531 566.8,455 566.8,606.9 "/>
<g>
	<path class="st0" d="M1229.3,737.5l-75.6-383.7l-13.5-20h144.1l54.2,280.3l136.9-280.3h136.9l-191.1,403.6L1229.3,737.5
		L1229.3,737.5z"/>
	<path class="st0" d="M2032.3,614.2h-218.9l-7.1,54.9h191.8l34.2-27.1l-20.7,95.6h-300.9c-13.8,0-24.1-4.5-31-13.5
		s-10.3-20.4-10.3-34.2l34.2-253.2h355.9L2032.3,614.2z M1833.3,505.1l-6.4,40.6h82l7.1-40.6H1833.3z"/>
	<path class="st0" d="M2506.5,505.1h-218.9l-27.1,164h191.1l34.2-27.1l-13.5,95.6h-355.9l47.8-300.9h349.4L2506.5,505.1z"/>
	<path class="st0" d="M2639.2,395.2l-13.5-20.7h150.5l-9.3,62h84.9l-14.3,68.5h-79.2l-23.5,164h68.5l-13.5,68.5h-150.5
		c-13.8,0-25-4.5-33.5-13.5c-8.6-9-11.2-20.4-7.8-34.2l27.8-184.7h-54.9l7.1-68.5h55.6L2639.2,395.2z"/>
	<path class="st0" d="M3236.8,436.6c13.8,0,24.1,5.6,31,16.8c6.9,11.2,10.3,23.7,10.3,37.4l-34.2,246.7h-308.1
		c-13.8,0-24.1-4.5-31-13.5s-10.3-20.4-10.3-34.2l34.2-253.2L3236.8,436.6L3236.8,436.6z M3058.5,505.1l-27.1,164h82l27.8-164
		L3058.5,505.1L3058.5,505.1z"/>
	<path class="st0" d="M3499.2,436.6l-13.5,95.6l96.3-95.6h136.9L3485.6,642l-13.5,95.6h-136.9l39.9-281l-14.3-20L3499.2,436.6
		L3499.2,436.6z"/>
	<path class="st0" d="M3825.8,737.5l-75.6-383.7l-13.5-20h144.1l54.2,280.3l136.9-280.3h136.9l-191.1,403.6L3825.8,737.5
		L3825.8,737.5z"/>
	<path class="st0" d="M4628.8,614.2h-218.9l-7.1,54.9h191.8l34.2-27.1l-20.7,95.6h-300.9c-13.8,0-24.1-4.5-31-13.5
		s-10.3-20.4-10.3-34.2l34.2-253.2H4656L4628.8,614.2z M4429.8,505.1l-6.4,40.6h82l7.1-40.6H4429.8z"/>
	<path class="st0" d="M4891.2,436.6l-41.4,300.9h-136.9l41.4-281l-20.7-20h157.6V436.6z M4891.2,415.9h-130.5l7.1-82h136.9
		L4891.2,415.9z"/>
	<path class="st0" d="M5359,436.6l-41.4,300.9h-136.9l34.2-232.5h-82l-34.2,232.5h-136.9l41.4-281l-20.7-20H5359V436.6z"/>
</g>
<polygon class="st0" points="1099.5,1059.8 828,551.2 567.1,639.7 "/>
<polygon class="st0" points="1102.2,1.3 830.7,509.8 569.8,421.4 "/>
<polygon class="st0" points="0,0 271.5,508.5 532.4,420.1 "/>
<polygon class="st0" points="0,1059 271.5,550.4 532.3,638.9 "/>
</svg>
