<?xml version="1.0" encoding="UTF-8"?>
<svg id="_图层_1" data-name="图层 1" xmlns="http://www.w3.org/2000/svg" viewBox="0 0 5089.95 1059.8">
  <defs>
    <style>
      .cls-1 {
        fill: #28c5e5;
      }
    </style>
  </defs>
  <polygon class="cls-1" points="296.8 530.5 531.8 455 531.8 606.9 296.8 530.5"/>
  <polygon class="cls-1" points="802.2 531 566.8 455 566.8 606.9 802.2 531"/>
  <polygon class="cls-1" points="1099.5 1059.8 828 551.2 567.1 639.7 1099.5 1059.8"/>
  <polygon class="cls-1" points="1102.15 1.3 830.65 509.8 569.85 421.4 1102.15 1.3"/>
  <polygon class="cls-1" points="0 0 271.5 508.5 532.4 420.1 0 0"/>
  <polygon class="cls-1" points="0 1059 271.5 550.4 532.3 638.9 0 1059"/>
  <g>
    <path class="cls-1" d="M1819.86,909.97l94.76-97.91,67.38-480.09h-480.09l-82.12,578h-180.03l95.81-678.03h40l51.59-56.85-20.01-23.16h280.05l-72.64,80.01h561.16l-85.28,608.54c-3.52,20.37-13.16,37.03-28.95,50.01-15.79,12.98-33.53,19.47-53.17,19.47h-188.46Zm102.13-507.46l-53.7,380.07h-381.12l53.7-380.07h381.12Zm-181.09,289.53l27.37-200.04h-98.97l-27.37,200.04h98.96Z"/>
    <path class="cls-1" d="M2565.27,732.04l2.11-20h-299l30.53-220.04h800.15l-30.53,220.04h-301.11l-2.11,20h320.06l-8.42,60.01h-320.06l-3.16,20h340.07l-10.53,78.96h-880.17l10.53-78.96h340.07l3.16-20h-320.06l8.42-60.01h320.06Zm585.38-320.06l-8.42,60.01h-880.17l8.42-60.01h880.17Zm-36.85-20h-800.15l30.53-221.1h800.15l-30.53,221.1Zm-538,260.05l3.16-20.01h-140.03l-2.11,20.01h138.98Zm-128.45-80.02h140.03l2.11-20.01h-138.98l-3.16,20.01Zm514.84-240.04l2.1-20.01h-480.09l-2.11,20.01h480.09Zm-469.56-80.02h480.09l3.16-21.06h-480.09l-3.16,21.06Zm424.29,400.08l2.1-20.01h-140.03l-3.16,20.01h141.08Zm-127.39-100.02l-2.11,20.01h140.03l3.16-20.01h-141.08Z"/>
    <path class="cls-1" d="M3343.31,908.92l50.54-57.9,28.42-200.04h-74.75l-46.33,257.94h-127.39l124.24-703.29-18.95-34.74h339.01l-93.7,668.55c-2.81,19.65-11.24,36.16-25.27,49.48-14.05,13.33-29.48,20.01-46.32,20.01h-109.5Zm22.11-357.96h70.54l12.63-90.55h-66.32l-16.85,90.55Zm34.75-190.56h63.17l12.63-89.49h-58.96l-16.84,89.49Zm374.81,71.59l-126.34,441.13h-118.97l104.23-350.59h-47.38l12.63-90.54h175.82Zm185.3-144.24l-8.42,60.01-4.21,30.53-64.23,459.03c-2.81,20.37-11.42,37.21-25.79,50.53-14.39,13.33-31.42,20.01-51.06,20.01h-151.61l81.07-84.22,62.12-445.35h-133.71l12.63-90.54h283.21Zm-260.05-121.08l416.92,21.06-12.63,85.28-416.92-20,12.63-86.34Zm412.71,204.25l-40.01,118.97-14.74,383.23h-128.45l24.21-383.23,35.8-118.97h123.18Z"/>
    <path class="cls-1" d="M4439.3,874.17l-302.16,17.9,13.69-100.02,302.16-17.9-13.69,100.02Zm-230.57-480.09l136.87-213.72-23.16-26.32h220.04l-153.71,240.04h120.02l-153.71,240.05h116.86l-13.69,100.02h-296.9l13.69-100.02,89.49-140.03h-69.49l13.69-100.02Zm827.52,196.88l-42.11,299h-517.99l42.11-299h517.99Zm-150.55-20.01l-94.76-68.43-109.49,67.38h-181.08l12.63-88.43h103.18l80.02-49.48-55.8-41.06h-113.71l137.92-209.51-24.21-27.37h180.03l-31.59,48.43h301.11l-17.9,126.34-167.4,103.18,67.38,48.43h101.07l-12.63,90.54h-174.77Zm-38.95,220.04l14.74-101.07h-196.88l-14.74,101.07h196.88Zm-115.81-500.1l-6.32,9.48,84.23,61.06,113.71-70.54h-191.61Z"/>
  </g>
</svg>