<svg class="animated" id="freepik_stories-coding" xmlns="http://www.w3.org/2000/svg" xmlns:xlink="http://www.w3.org/1999/xlink" viewBox="0 0 500 500" version="1.1" xmlns:svgjs="http://svgjs.com/svgjs"><style>svg#freepik_stories-coding:not(.animated) .animable {opacity: 0;}svg#freepik_stories-coding.animated #freepik--background-simple--inject-109 {animation: 1.5s Infinite  linear floating;animation-delay: 0s;}            @keyframes floating {                0% {                    opacity: 1;                    transform: translateY(0px);                }                50% {                    transform: translateY(-10px);                }                100% {                    opacity: 1;                    transform: translateY(0px);                }            }        </style><g id="freepik--background-simple--inject-109" class="animable animator-active" style="transform-origin: 244.833px 257.284px;"><path d="M427.77,406.92c2.93-11,12.51-47.91,19-85.31,7.76-44.64,14.55-106.14-16.49-131.92s-71.78,4.95-93.12-5-22.3-59.52-79.53-74.4S168.4,147,143.18,174.81,89.83,183.73,53,213.49c-36.46,29.44-5.54,162.69,21.42,193.43Z" style="fill: rgb(253, 199, 1); transform-origin: 244.833px 257.284px;" id="elsgw3zn19n0s" class="animable"></path><g id="el2s8txsmmtt5"><path d="M427.77,406.92c2.93-11,12.51-47.91,19-85.31,7.76-44.64,14.55-106.14-16.49-131.92s-71.78,4.95-93.12-5-22.3-59.52-79.53-74.4S168.4,147,143.18,174.81,89.83,183.73,53,213.49c-36.46,29.44-5.54,162.69,21.42,193.43Z" style="fill: rgb(255, 255, 255); opacity: 0.7; transform-origin: 244.833px 257.284px;" class="animable"></path></g></g><g id="freepik--Codes--inject-109" class="animable" style="transform-origin: 232.123px 211.855px;"><path d="M298.52,203.44h-3.24a.8.8,0,0,1,0-1.6h3.24a.8.8,0,0,1,0,1.6Zm.8,2.9a.8.8,0,0,0-.8-.8h-3.24a.8.8,0,0,0,0,1.6h3.24A.8.8,0,0,0,299.32,206.34Zm0,3.7a.8.8,0,0,0-.8-.8h-3.24a.8.8,0,0,0,0,1.6h3.24A.8.8,0,0,0,299.32,210Zm0,3.7a.8.8,0,0,0-.8-.8h-3.24a.8.8,0,0,0,0,1.6h3.24A.8.8,0,0,0,299.32,213.74Zm0,3.7a.8.8,0,0,0-.8-.8h-3.24a.8.8,0,0,0,0,1.59h3.24A.79.79,0,0,0,299.32,217.44Zm0,3.69a.79.79,0,0,0-.8-.79h-3.24a.8.8,0,0,0,0,1.59h3.24A.8.8,0,0,0,299.32,221.13Zm0,3.7a.8.8,0,0,0-.8-.8h-3.24a.8.8,0,0,0,0,1.6h3.24A.8.8,0,0,0,299.32,224.83Zm0,3.7a.8.8,0,0,0-.8-.8h-3.24a.8.8,0,0,0,0,1.6h3.24A.8.8,0,0,0,299.32,228.53Zm12.1-25.89a.79.79,0,0,0-.79-.8h-8.5a.8.8,0,0,0,0,1.6h8.5A.79.79,0,0,0,311.42,202.64Zm0,3.7a.79.79,0,0,0-.79-.8h-8.5a.8.8,0,1,0,0,1.6h8.5A.79.79,0,0,0,311.42,206.34Zm0,3.7a.79.79,0,0,0-.79-.8h-8.5a.8.8,0,0,0,0,1.6h8.5A.79.79,0,0,0,311.42,210Zm0,3.7a.79.79,0,0,0-.79-.8h-8.5a.8.8,0,0,0,0,1.6h8.5A.79.79,0,0,0,311.42,213.74Zm0,3.7a.79.79,0,0,0-.79-.8h-8.5a.8.8,0,1,0,0,1.59h8.5A.79.79,0,0,0,311.42,217.44Zm10.18,3.69a.79.79,0,0,0-.8-.79h-8.5a.8.8,0,1,0,0,1.59h8.5A.8.8,0,0,0,321.6,221.13Zm0,3.7a.8.8,0,0,0-.8-.8h-8.5a.8.8,0,0,0,0,1.6h8.5A.8.8,0,0,0,321.6,224.83Zm0,3.7a.8.8,0,0,0-.8-.8h-8.5a.8.8,0,1,0,0,1.6h8.5A.8.8,0,0,0,321.6,228.53Zm-6.44-25.89a.93.93,0,0,0-1.85,0,.93.93,0,1,0,1.85,0Zm2.78,0a.93.93,0,1,0-.93.93A.93.93,0,0,0,317.94,202.64Zm2.77,0a.93.93,0,0,0-1.85,0,.93.93,0,1,0,1.85,0Zm2.77,0a.92.92,0,1,0-.92.93A.92.92,0,0,0,323.48,202.64Zm2.78,0a.93.93,0,1,0-.93.93A.93.93,0,0,0,326.26,202.64Zm2.77,0a.93.93,0,0,0-1.85,0,.93.93,0,1,0,1.85,0ZM315.16,210a.93.93,0,1,0-.92.92A.93.93,0,0,0,315.16,210Zm2.78,0a.93.93,0,1,0-1.85,0,.93.93,0,0,0,1.85,0Zm2.77,0a.93.93,0,1,0-.92.92A.93.93,0,0,0,320.71,210Zm2.77,0a.92.92,0,1,0-.92.92A.93.93,0,0,0,323.48,210Zm2.78,0a.93.93,0,1,0-1.85,0,.93.93,0,0,0,1.85,0Zm2.77,0a.93.93,0,1,0-.92.92A.93.93,0,0,0,329,210Zm-4.39,10.63a.93.93,0,0,0-1.85,0,.93.93,0,1,0,1.85,0Zm2.77,0a.92.92,0,1,0-.92.93A.92.92,0,0,0,327.41,220.67Zm2.78,0a.93.93,0,1,0-.93.93A.93.93,0,0,0,330.19,220.67Zm2.77,0a.93.93,0,0,0-1.85,0,.93.93,0,1,0,1.85,0Zm2.78,0a.93.93,0,1,0-.93.93A.93.93,0,0,0,335.74,220.67Zm2.77,0a.93.93,0,1,0-.93.93A.92.92,0,0,0,338.51,220.67Zm-13.87,7.63a.93.93,0,1,0-.92.92A.92.92,0,0,0,324.64,228.3Zm2.77,0a.92.92,0,1,0-.92.92A.92.92,0,0,0,327.41,228.3Zm2.78,0a.93.93,0,1,0-.93.92A.93.93,0,0,0,330.19,228.3Zm2.77,0a.93.93,0,1,0-.92.92A.92.92,0,0,0,333,228.3Zm2.78,0a.93.93,0,1,0-.93.92A.93.93,0,0,0,335.74,228.3Zm2.77,0a.93.93,0,1,0-.93.92A.92.92,0,0,0,338.51,228.3Z" style="fill: rgb(253, 199, 1); transform-origin: 316.495px 215.52px;" id="eli1kwefbg8li" class="animable"></path><path d="M298.52,233h-3.24a.8.8,0,0,1,0-1.6h3.24a.8.8,0,1,1,0,1.6Zm.8,2.9a.8.8,0,0,0-.8-.8h-3.24a.8.8,0,0,0,0,1.59h3.24A.79.79,0,0,0,299.32,235.94Zm0,3.69a.79.79,0,0,0-.8-.79h-3.24a.8.8,0,0,0,0,1.59h3.24A.8.8,0,0,0,299.32,239.63Zm0,3.7a.8.8,0,0,0-.8-.8h-3.24a.8.8,0,0,0,0,1.6h3.24A.8.8,0,0,0,299.32,243.33Zm0,3.7a.8.8,0,0,0-.8-.8h-3.24a.8.8,0,0,0,0,1.6h3.24A.8.8,0,0,0,299.32,247Zm0,3.7a.8.8,0,0,0-.8-.8h-3.24a.8.8,0,0,0,0,1.6h3.24A.8.8,0,0,0,299.32,250.73Zm0,3.7a.8.8,0,0,0-.8-.8h-3.24a.8.8,0,0,0,0,1.6h3.24A.8.8,0,0,0,299.32,254.43Zm0,3.7a.8.8,0,0,0-.8-.8h-3.24a.79.79,0,0,0-.79.8.79.79,0,0,0,.79.79h3.24A.79.79,0,0,0,299.32,258.13Zm12.1-25.89a.79.79,0,0,0-.79-.8h-8.5a.8.8,0,0,0,0,1.6h8.5A.79.79,0,0,0,311.42,232.24Zm0,3.7a.79.79,0,0,0-.79-.8h-8.5a.8.8,0,1,0,0,1.59h8.5A.79.79,0,0,0,311.42,235.94Zm0,3.69a.79.79,0,0,0-.79-.79h-8.5a.8.8,0,1,0,0,1.59h8.5A.79.79,0,0,0,311.42,239.63Zm0,3.7a.79.79,0,0,0-.79-.8h-8.5a.8.8,0,0,0,0,1.6h8.5A.79.79,0,0,0,311.42,243.33Zm0,3.7a.79.79,0,0,0-.79-.8h-8.5a.8.8,0,0,0,0,1.6h8.5A.79.79,0,0,0,311.42,247Zm10.18,3.7a.8.8,0,0,0-.8-.8h-8.5a.8.8,0,1,0,0,1.6h8.5A.8.8,0,0,0,321.6,250.73Zm0,3.7a.8.8,0,0,0-.8-.8h-8.5a.8.8,0,0,0,0,1.6h8.5A.8.8,0,0,0,321.6,254.43Zm0,3.7a.8.8,0,0,0-.8-.8h-8.5a.8.8,0,0,0-.8.8.79.79,0,0,0,.8.79h8.5A.79.79,0,0,0,321.6,258.13Zm-6.44-25.89a.93.93,0,1,0-.92.92A.93.93,0,0,0,315.16,232.24Zm2.78,0a.93.93,0,1,0-1.85,0,.93.93,0,0,0,1.85,0Zm2.77,0a.93.93,0,1,0-.92.92A.93.93,0,0,0,320.71,232.24Zm2.77,0a.92.92,0,1,0-.92.92A.93.93,0,0,0,323.48,232.24Zm2.78,0a.93.93,0,1,0-1.85,0,.93.93,0,0,0,1.85,0Zm2.77,0a.93.93,0,1,0-.92.92A.93.93,0,0,0,329,232.24Zm-13.87,7.39a.93.93,0,0,0-1.85,0,.93.93,0,1,0,1.85,0Zm2.78,0a.93.93,0,1,0-.93.93A.93.93,0,0,0,317.94,239.63Zm2.77,0a.93.93,0,0,0-1.85,0,.93.93,0,1,0,1.85,0Zm2.77,0a.92.92,0,1,0-.92.93A.92.92,0,0,0,323.48,239.63Zm2.78,0a.93.93,0,1,0-.93.93A.93.93,0,0,0,326.26,239.63Zm2.77,0a.93.93,0,0,0-1.85,0,.93.93,0,1,0,1.85,0Zm-4.39,10.64a.93.93,0,1,0-.92.92A.93.93,0,0,0,324.64,250.27Zm2.77,0a.92.92,0,1,0-.92.92A.93.93,0,0,0,327.41,250.27Zm2.78,0a.93.93,0,1,0-1.85,0,.93.93,0,0,0,1.85,0Zm2.77,0a.93.93,0,1,0-.92.92A.93.93,0,0,0,333,250.27Zm2.78,0a.93.93,0,1,0-1.85,0,.93.93,0,0,0,1.85,0Zm2.77,0a.93.93,0,1,0-1.85,0,.93.93,0,0,0,1.85,0Zm-13.87,7.63a.93.93,0,1,0-.92.92A.92.92,0,0,0,324.64,257.9Zm2.77,0a.92.92,0,1,0-.92.92A.92.92,0,0,0,327.41,257.9Zm2.78,0a.93.93,0,1,0-1.85,0,.93.93,0,0,0,1.85,0Zm2.77,0a.93.93,0,1,0-.92.92A.92.92,0,0,0,333,257.9Zm2.78,0a.93.93,0,1,0-1.85,0,.93.93,0,0,0,1.85,0Zm2.77,0a.93.93,0,1,0-.93.92A.92.92,0,0,0,338.51,257.9Z" style="fill: rgb(253, 199, 1); transform-origin: 316.497px 245.027px;" id="ely2qw8wr2xn9" class="animable"></path><path d="M298.52,263.35h-3.24a.8.8,0,0,1,0-1.6h3.24a.8.8,0,0,1,0,1.6Zm.8,2.9a.8.8,0,0,0-.8-.8h-3.24a.8.8,0,0,0,0,1.59h3.24A.79.79,0,0,0,299.32,266.25Zm0,3.69a.79.79,0,0,0-.8-.79h-3.24a.8.8,0,0,0,0,1.59h3.24A.8.8,0,0,0,299.32,269.94Zm0,3.7a.8.8,0,0,0-.8-.8h-3.24a.8.8,0,0,0,0,1.6h3.24A.8.8,0,0,0,299.32,273.64Zm0,3.7a.8.8,0,0,0-.8-.8h-3.24a.8.8,0,0,0,0,1.6h3.24A.8.8,0,0,0,299.32,277.34Zm0,3.7a.8.8,0,0,0-.8-.8h-3.24a.8.8,0,0,0,0,1.6h3.24A.8.8,0,0,0,299.32,281Zm0,3.7a.8.8,0,0,0-.8-.8h-3.24a.8.8,0,0,0,0,1.6h3.24A.8.8,0,0,0,299.32,284.74Zm0,3.7a.8.8,0,0,0-.8-.8h-3.24a.79.79,0,0,0-.79.8.79.79,0,0,0,.79.79h3.24A.79.79,0,0,0,299.32,288.44Zm12.1-25.89a.79.79,0,0,0-.79-.8h-8.5a.8.8,0,0,0,0,1.6h8.5A.79.79,0,0,0,311.42,262.55Zm0,3.7a.79.79,0,0,0-.79-.8h-8.5a.8.8,0,1,0,0,1.59h8.5A.79.79,0,0,0,311.42,266.25Zm0,3.69a.79.79,0,0,0-.79-.79h-8.5a.8.8,0,1,0,0,1.59h8.5A.79.79,0,0,0,311.42,269.94Zm0,3.7a.79.79,0,0,0-.79-.8h-8.5a.8.8,0,0,0,0,1.6h8.5A.79.79,0,0,0,311.42,273.64Zm0,3.7a.79.79,0,0,0-.79-.8h-8.5a.8.8,0,0,0,0,1.6h8.5A.79.79,0,0,0,311.42,277.34ZM321.6,281a.8.8,0,0,0-.8-.8h-8.5a.8.8,0,1,0,0,1.6h8.5A.8.8,0,0,0,321.6,281Zm0,3.7a.8.8,0,0,0-.8-.8h-8.5a.8.8,0,1,0,0,1.6h8.5A.8.8,0,0,0,321.6,284.74Zm0,3.7a.8.8,0,0,0-.8-.8h-8.5a.8.8,0,0,0-.8.8.79.79,0,0,0,.8.79h8.5A.79.79,0,0,0,321.6,288.44Zm-6.44-25.89a.93.93,0,1,0-.92.92A.93.93,0,0,0,315.16,262.55Zm2.78,0a.93.93,0,1,0-1.85,0,.93.93,0,0,0,1.85,0Zm2.77,0a.93.93,0,1,0-.92.92A.93.93,0,0,0,320.71,262.55Zm2.77,0a.92.92,0,1,0-.92.92A.93.93,0,0,0,323.48,262.55Zm2.78,0a.93.93,0,1,0-1.85,0,.93.93,0,0,0,1.85,0Zm2.77,0a.93.93,0,1,0-.92.92A.93.93,0,0,0,329,262.55Zm-13.87,7.39a.93.93,0,0,0-1.85,0,.93.93,0,1,0,1.85,0Zm2.78,0a.93.93,0,1,0-.93.93A.93.93,0,0,0,317.94,269.94Zm2.77,0a.93.93,0,0,0-1.85,0,.93.93,0,1,0,1.85,0Zm2.77,0a.92.92,0,1,0-.92.93A.92.92,0,0,0,323.48,269.94Zm2.78,0a.93.93,0,1,0-.93.93A.93.93,0,0,0,326.26,269.94Zm2.77,0a.93.93,0,0,0-1.85,0,.93.93,0,1,0,1.85,0Zm-4.39,10.64a.93.93,0,1,0-.92.92A.93.93,0,0,0,324.64,280.58Zm2.77,0a.92.92,0,1,0-.92.92A.93.93,0,0,0,327.41,280.58Zm2.78,0a.93.93,0,1,0-1.85,0,.93.93,0,0,0,1.85,0Zm2.77,0a.93.93,0,1,0-.92.92A.93.93,0,0,0,333,280.58Zm2.78,0a.93.93,0,1,0-1.85,0,.93.93,0,0,0,1.85,0Zm2.77,0a.93.93,0,1,0-1.85,0,.93.93,0,0,0,1.85,0Zm-13.87,7.63a.93.93,0,1,0-.92.92A.92.92,0,0,0,324.64,288.21Zm2.77,0a.92.92,0,1,0-.92.92A.92.92,0,0,0,327.41,288.21Zm2.78,0a.93.93,0,1,0-1.85,0,.93.93,0,0,0,1.85,0Zm2.77,0a.93.93,0,1,0-.92.92A.92.92,0,0,0,333,288.21Zm2.78,0a.93.93,0,1,0-1.85,0,.93.93,0,0,0,1.85,0Zm2.77,0a.93.93,0,1,0-.93.92A.92.92,0,0,0,338.51,288.21Z" style="fill: rgb(253, 199, 1); transform-origin: 316.497px 275.357px;" id="elf9m77pkf7gc" class="animable"></path><path d="M348.2,203.44H345a.8.8,0,0,1,0-1.6h3.23a.8.8,0,1,1,0,1.6Zm.8,2.9a.8.8,0,0,0-.8-.8H345a.8.8,0,0,0,0,1.6h3.23A.8.8,0,0,0,349,206.34Zm0,3.7a.8.8,0,0,0-.8-.8H345a.8.8,0,0,0,0,1.6h3.23A.8.8,0,0,0,349,210Zm0,3.7a.8.8,0,0,0-.8-.8H345a.8.8,0,0,0,0,1.6h3.23A.8.8,0,0,0,349,213.74Zm0,3.7a.79.79,0,0,0-.8-.8H345a.8.8,0,1,0,0,1.59h3.23A.79.79,0,0,0,349,217.44Zm0,3.69a.79.79,0,0,0-.8-.79H345a.8.8,0,1,0,0,1.59h3.23A.79.79,0,0,0,349,221.13Zm0,3.7a.8.8,0,0,0-.8-.8H345a.8.8,0,0,0,0,1.6h3.23A.8.8,0,0,0,349,224.83Zm0,3.7a.8.8,0,0,0-.8-.8H345a.8.8,0,0,0,0,1.6h3.23A.8.8,0,0,0,349,228.53Zm12.11-25.89a.8.8,0,0,0-.8-.8h-8.49a.8.8,0,0,0,0,1.6h8.49A.8.8,0,0,0,361.11,202.64Zm0,3.7a.8.8,0,0,0-.8-.8h-8.49a.8.8,0,0,0,0,1.6h8.49A.8.8,0,0,0,361.11,206.34Zm0,3.7a.8.8,0,0,0-.8-.8h-8.49a.8.8,0,0,0,0,1.6h8.49A.8.8,0,0,0,361.11,210Zm0,3.7a.8.8,0,0,0-.8-.8h-8.49a.8.8,0,0,0,0,1.6h8.49A.8.8,0,0,0,361.11,213.74Zm0,3.7a.8.8,0,0,0-.8-.8h-8.49a.8.8,0,1,0,0,1.59h8.49A.79.79,0,0,0,361.11,217.44Zm10.17,3.69a.79.79,0,0,0-.8-.79H362a.8.8,0,1,0,0,1.59h8.49A.8.8,0,0,0,371.28,221.13Zm0,3.7a.8.8,0,0,0-.8-.8H362a.8.8,0,0,0,0,1.6h8.49A.8.8,0,0,0,371.28,224.83Zm0,3.7a.8.8,0,0,0-.8-.8H362a.8.8,0,0,0,0,1.6h8.49A.8.8,0,0,0,371.28,228.53Zm-6.43-25.89a.93.93,0,1,0-.93.93A.93.93,0,0,0,364.85,202.64Zm2.77,0a.93.93,0,0,0-1.85,0,.93.93,0,1,0,1.85,0Zm2.78,0a.93.93,0,1,0-.93.93A.93.93,0,0,0,370.4,202.64Zm2.77,0a.93.93,0,1,0-.93.93A.92.92,0,0,0,373.17,202.64Zm2.77,0a.93.93,0,0,0-1.85,0,.93.93,0,1,0,1.85,0Zm2.78,0a.93.93,0,1,0-.93.93A.93.93,0,0,0,378.72,202.64ZM364.85,210a.93.93,0,1,0-1.85,0,.93.93,0,0,0,1.85,0Zm2.77,0a.93.93,0,1,0-.92.92A.93.93,0,0,0,367.62,210Zm2.78,0a.93.93,0,1,0-1.85,0,.93.93,0,0,0,1.85,0Zm2.77,0a.93.93,0,1,0-1.85,0,.93.93,0,0,0,1.85,0Zm2.77,0a.93.93,0,1,0-.92.92A.93.93,0,0,0,375.94,210Zm2.78,0a.93.93,0,1,0-1.85,0,.93.93,0,0,0,1.85,0Zm-4.39,10.63a.93.93,0,1,0-.93.93A.93.93,0,0,0,374.33,220.67Zm2.77,0a.93.93,0,1,0-.93.93A.93.93,0,0,0,377.1,220.67Zm2.77,0a.93.93,0,0,0-1.85,0,.93.93,0,1,0,1.85,0Zm2.78,0a.93.93,0,1,0-.93.93A.93.93,0,0,0,382.65,220.67Zm2.77,0a.93.93,0,0,0-1.85,0,.93.93,0,1,0,1.85,0Zm2.77,0a.93.93,0,0,0-1.85,0,.93.93,0,1,0,1.85,0Zm-13.86,7.63a.93.93,0,1,0-.93.92A.93.93,0,0,0,374.33,228.3Zm2.77,0a.93.93,0,1,0-.93.92A.93.93,0,0,0,377.1,228.3Zm2.77,0a.93.93,0,1,0-.92.92A.92.92,0,0,0,379.87,228.3Zm2.78,0a.93.93,0,1,0-.93.92A.93.93,0,0,0,382.65,228.3Zm2.77,0a.93.93,0,1,0-.92.92A.92.92,0,0,0,385.42,228.3Zm2.77,0a.93.93,0,1,0-.92.92A.92.92,0,0,0,388.19,228.3Z" style="fill: rgb(253, 199, 1); transform-origin: 366.153px 215.52px;" id="eluj7w0kqp96" class="animable"></path><path d="M348.2,233.75H345a.8.8,0,0,1,0-1.6h3.23a.8.8,0,1,1,0,1.6Zm.8,2.9a.8.8,0,0,0-.8-.8H345a.8.8,0,0,0,0,1.6h3.23A.8.8,0,0,0,349,236.65Zm0,3.7a.8.8,0,0,0-.8-.8H345a.8.8,0,0,0,0,1.6h3.23A.8.8,0,0,0,349,240.35Zm0,3.7a.8.8,0,0,0-.8-.8H345a.8.8,0,0,0,0,1.6h3.23A.8.8,0,0,0,349,244.05Zm0,3.7a.79.79,0,0,0-.8-.8H345a.8.8,0,1,0,0,1.59h3.23A.79.79,0,0,0,349,247.75Zm0,3.69a.79.79,0,0,0-.8-.79H345a.8.8,0,1,0,0,1.59h3.23A.79.79,0,0,0,349,251.44Zm0,3.7a.8.8,0,0,0-.8-.8H345a.8.8,0,0,0,0,1.6h3.23A.8.8,0,0,0,349,255.14Zm0,3.7a.8.8,0,0,0-.8-.8H345a.8.8,0,0,0,0,1.6h3.23A.8.8,0,0,0,349,258.84ZM361.11,233a.8.8,0,0,0-.8-.8h-8.49a.8.8,0,0,0,0,1.6h8.49A.8.8,0,0,0,361.11,233Zm0,3.7a.8.8,0,0,0-.8-.8h-8.49a.8.8,0,0,0,0,1.6h8.49A.8.8,0,0,0,361.11,236.65Zm0,3.7a.8.8,0,0,0-.8-.8h-8.49a.8.8,0,0,0,0,1.6h8.49A.8.8,0,0,0,361.11,240.35Zm0,3.7a.8.8,0,0,0-.8-.8h-8.49a.8.8,0,0,0,0,1.6h8.49A.8.8,0,0,0,361.11,244.05Zm0,3.7a.8.8,0,0,0-.8-.8h-8.49a.8.8,0,1,0,0,1.59h8.49A.79.79,0,0,0,361.11,247.75Zm10.17,3.69a.79.79,0,0,0-.8-.79H362a.8.8,0,1,0,0,1.59h8.49A.8.8,0,0,0,371.28,251.44Zm0,3.7a.8.8,0,0,0-.8-.8H362a.8.8,0,0,0,0,1.6h8.49A.8.8,0,0,0,371.28,255.14Zm0,3.7a.8.8,0,0,0-.8-.8H362a.8.8,0,0,0,0,1.6h8.49A.8.8,0,0,0,371.28,258.84ZM364.85,233a.93.93,0,1,0-.93.93A.93.93,0,0,0,364.85,233Zm2.77,0a.93.93,0,0,0-1.85,0,.93.93,0,1,0,1.85,0Zm2.78,0a.93.93,0,1,0-.93.93A.93.93,0,0,0,370.4,233Zm2.77,0a.93.93,0,1,0-.93.93A.92.92,0,0,0,373.17,233Zm2.77,0a.93.93,0,0,0-1.85,0,.93.93,0,1,0,1.85,0Zm2.78,0a.93.93,0,1,0-.93.93A.93.93,0,0,0,378.72,233Zm-13.87,7.4a.93.93,0,1,0-1.85,0,.93.93,0,0,0,1.85,0Zm2.77,0a.93.93,0,1,0-.92.92A.93.93,0,0,0,367.62,240.35Zm2.78,0a.93.93,0,1,0-1.85,0,.93.93,0,0,0,1.85,0Zm2.77,0a.93.93,0,1,0-1.85,0,.93.93,0,0,0,1.85,0Zm2.77,0a.93.93,0,1,0-.92.92A.93.93,0,0,0,375.94,240.35Zm2.78,0a.93.93,0,1,0-1.85,0,.93.93,0,0,0,1.85,0ZM374.33,251a.93.93,0,1,0-.93.93A.93.93,0,0,0,374.33,251Zm2.77,0a.93.93,0,1,0-.93.93A.93.93,0,0,0,377.1,251Zm2.77,0a.93.93,0,0,0-1.85,0,.93.93,0,1,0,1.85,0Zm2.78,0a.93.93,0,1,0-.93.93A.93.93,0,0,0,382.65,251Zm2.77,0a.93.93,0,0,0-1.85,0,.93.93,0,1,0,1.85,0Zm2.77,0a.93.93,0,0,0-1.85,0,.93.93,0,1,0,1.85,0Zm-13.86,7.63a.93.93,0,1,0-.93.92A.93.93,0,0,0,374.33,258.61Zm2.77,0a.93.93,0,1,0-.93.92A.93.93,0,0,0,377.1,258.61Zm2.77,0a.93.93,0,1,0-.92.92A.92.92,0,0,0,379.87,258.61Zm2.78,0a.93.93,0,1,0-.93.92A.93.93,0,0,0,382.65,258.61Zm2.77,0a.93.93,0,1,0-.92.92A.92.92,0,0,0,385.42,258.61Zm2.77,0a.93.93,0,1,0-.92.92A.92.92,0,0,0,388.19,258.61Z" style="fill: rgb(253, 199, 1); transform-origin: 366.153px 245.88px;" id="ela4r3kfq5ipf" class="animable"></path><path d="M189.58,136.21h-3.24a.8.8,0,0,1,0-1.6h3.24a.8.8,0,0,1,0,1.6Zm.8,2.9a.8.8,0,0,0-.8-.8h-3.24a.8.8,0,0,0,0,1.6h3.24A.8.8,0,0,0,190.38,139.11Zm0,3.7a.8.8,0,0,0-.8-.8h-3.24a.8.8,0,0,0,0,1.6h3.24A.8.8,0,0,0,190.38,142.81Zm0,3.7a.8.8,0,0,0-.8-.8h-3.24a.79.79,0,0,0-.79.8.79.79,0,0,0,.79.79h3.24A.79.79,0,0,0,190.38,146.51Zm0,3.69a.79.79,0,0,0-.8-.79h-3.24a.8.8,0,0,0,0,1.59h3.24A.8.8,0,0,0,190.38,150.2Zm0,3.7a.79.79,0,0,0-.8-.79h-3.24a.79.79,0,0,0-.79.79.79.79,0,0,0,.79.8h3.24A.8.8,0,0,0,190.38,153.9Zm0,3.7a.8.8,0,0,0-.8-.8h-3.24a.8.8,0,0,0,0,1.6h3.24A.8.8,0,0,0,190.38,157.6Zm0,3.7a.8.8,0,0,0-.8-.8h-3.24a.8.8,0,0,0,0,1.6h3.24A.8.8,0,0,0,190.38,161.3Zm12.11-25.89a.8.8,0,0,0-.8-.8h-8.5a.8.8,0,0,0,0,1.6h8.5A.8.8,0,0,0,202.49,135.41Zm0,3.7a.8.8,0,0,0-.8-.8h-8.5a.8.8,0,1,0,0,1.6h8.5A.8.8,0,0,0,202.49,139.11Zm0,3.7a.8.8,0,0,0-.8-.8h-8.5a.8.8,0,0,0,0,1.6h8.5A.8.8,0,0,0,202.49,142.81Zm0,3.7a.8.8,0,0,0-.8-.8h-8.5a.8.8,0,0,0-.8.8.79.79,0,0,0,.8.79h8.5A.79.79,0,0,0,202.49,146.51Zm0,3.69a.79.79,0,0,0-.8-.79h-8.5a.8.8,0,1,0,0,1.59h8.5A.8.8,0,0,0,202.49,150.2Zm10.17,3.7a.79.79,0,0,0-.8-.79h-8.5a.79.79,0,0,0-.8.79.8.8,0,0,0,.8.8h8.5A.8.8,0,0,0,212.66,153.9Zm0,3.7a.8.8,0,0,0-.8-.8h-8.5a.8.8,0,0,0,0,1.6h8.5A.8.8,0,0,0,212.66,157.6Zm0,3.7a.8.8,0,0,0-.8-.8h-8.5a.8.8,0,1,0,0,1.6h8.5A.8.8,0,0,0,212.66,161.3Zm-6.44-25.89a.93.93,0,0,0-1.85,0,.93.93,0,1,0,1.85,0Zm2.78,0a.93.93,0,1,0-.93.93A.93.93,0,0,0,209,135.41Zm2.77,0a.93.93,0,0,0-1.85,0,.93.93,0,1,0,1.85,0Zm2.78,0a.93.93,0,1,0-.93.93A.93.93,0,0,0,214.55,135.41Zm2.77,0a.93.93,0,1,0-.93.93A.92.92,0,0,0,217.32,135.41Zm2.77,0a.93.93,0,0,0-1.85,0,.93.93,0,1,0,1.85,0Zm-13.87,7.4a.93.93,0,1,0-.92.92A.93.93,0,0,0,206.22,142.81Zm2.78,0a.93.93,0,1,0-1.85,0,.93.93,0,0,0,1.85,0Zm2.77,0a.93.93,0,1,0-.92.92A.93.93,0,0,0,211.77,142.81Zm2.78,0a.93.93,0,1,0-1.85,0,.93.93,0,0,0,1.85,0Zm2.77,0a.93.93,0,1,0-1.85,0,.93.93,0,0,0,1.85,0Zm2.77,0a.93.93,0,1,0-.92.92A.93.93,0,0,0,220.09,142.81Zm-4.39,10.63a.93.93,0,0,0-1.85,0,.93.93,0,1,0,1.85,0Zm2.78,0a.93.93,0,1,0-.93.93A.93.93,0,0,0,218.48,153.44Zm2.77,0a.93.93,0,1,0-.93.93A.93.93,0,0,0,221.25,153.44Zm2.77,0a.93.93,0,0,0-1.85,0,.93.93,0,1,0,1.85,0Zm2.78,0a.93.93,0,1,0-.93.93A.93.93,0,0,0,226.8,153.44Zm2.77,0a.93.93,0,0,0-1.85,0,.93.93,0,1,0,1.85,0Zm-13.87,7.63a.93.93,0,1,0-.92.92A.93.93,0,0,0,215.7,161.07Zm2.78,0a.93.93,0,1,0-1.85,0,.93.93,0,0,0,1.85,0Zm2.77,0a.93.93,0,1,0-1.85,0,.93.93,0,0,0,1.85,0Zm2.77,0a.93.93,0,1,0-.92.92A.93.93,0,0,0,224,161.07Zm2.78,0a.93.93,0,1,0-1.85,0,.93.93,0,0,0,1.85,0Zm2.77,0a.93.93,0,1,0-.92.92A.93.93,0,0,0,229.57,161.07Z" style="fill: rgb(253, 199, 1); transform-origin: 207.558px 148.29px;" id="elasz0y2aza9o" class="animable"></path><path d="M189.58,165.8h-3.24a.79.79,0,0,1-.79-.79.79.79,0,0,1,.79-.8h3.24a.8.8,0,0,1,.8.8A.79.79,0,0,1,189.58,165.8Zm.8,2.9a.79.79,0,0,0-.8-.79h-3.24a.8.8,0,0,0,0,1.59h3.24A.8.8,0,0,0,190.38,168.7Zm0,3.7a.79.79,0,0,0-.8-.79h-3.24a.79.79,0,0,0-.79.79.79.79,0,0,0,.79.8h3.24A.8.8,0,0,0,190.38,172.4Zm0,3.7a.8.8,0,0,0-.8-.8h-3.24a.8.8,0,0,0,0,1.6h3.24A.8.8,0,0,0,190.38,176.1Zm0,3.7a.8.8,0,0,0-.8-.8h-3.24a.8.8,0,0,0,0,1.6h3.24A.8.8,0,0,0,190.38,179.8Zm0,3.7a.8.8,0,0,0-.8-.8h-3.24a.8.8,0,0,0,0,1.6h3.24A.8.8,0,0,0,190.38,183.5Zm0,3.7a.8.8,0,0,0-.8-.8h-3.24a.8.8,0,0,0,0,1.6h3.24A.8.8,0,0,0,190.38,187.2Zm0,3.7a.8.8,0,0,0-.8-.8h-3.24a.8.8,0,0,0,0,1.59h3.24A.79.79,0,0,0,190.38,190.9ZM202.49,165a.8.8,0,0,0-.8-.8h-8.5a.8.8,0,0,0-.8.8.79.79,0,0,0,.8.79h8.5A.79.79,0,0,0,202.49,165Zm0,3.69a.79.79,0,0,0-.8-.79h-8.5a.8.8,0,1,0,0,1.59h8.5A.8.8,0,0,0,202.49,168.7Zm0,3.7a.79.79,0,0,0-.8-.79h-8.5a.79.79,0,0,0-.8.79.8.8,0,0,0,.8.8h8.5A.8.8,0,0,0,202.49,172.4Zm0,3.7a.8.8,0,0,0-.8-.8h-8.5a.8.8,0,1,0,0,1.6h8.5A.8.8,0,0,0,202.49,176.1Zm0,3.7a.8.8,0,0,0-.8-.8h-8.5a.8.8,0,1,0,0,1.6h8.5A.8.8,0,0,0,202.49,179.8Zm10.17,3.7a.8.8,0,0,0-.8-.8h-8.5a.8.8,0,0,0,0,1.6h8.5A.8.8,0,0,0,212.66,183.5Zm0,3.7a.8.8,0,0,0-.8-.8h-8.5a.8.8,0,1,0,0,1.6h8.5A.8.8,0,0,0,212.66,187.2Zm0,3.7a.8.8,0,0,0-.8-.8h-8.5a.8.8,0,1,0,0,1.59h8.5A.79.79,0,0,0,212.66,190.9ZM206.22,165a.93.93,0,1,0-.92.92A.93.93,0,0,0,206.22,165Zm2.78,0a.93.93,0,1,0-1.85,0,.93.93,0,0,0,1.85,0Zm2.77,0a.93.93,0,1,0-.92.92A.93.93,0,0,0,211.77,165Zm2.78,0a.93.93,0,1,0-1.85,0,.93.93,0,0,0,1.85,0Zm2.77,0a.93.93,0,1,0-1.85,0,.93.93,0,0,0,1.85,0Zm2.77,0a.93.93,0,1,0-.92.92A.93.93,0,0,0,220.09,165Zm-13.87,7.39a.93.93,0,0,0-1.85,0,.93.93,0,1,0,1.85,0Zm2.78,0a.93.93,0,1,0-.93.93A.93.93,0,0,0,209,172.4Zm2.77,0a.93.93,0,0,0-1.85,0,.93.93,0,1,0,1.85,0Zm2.78,0a.93.93,0,1,0-.93.93A.93.93,0,0,0,214.55,172.4Zm2.77,0a.93.93,0,1,0-.93.93A.92.92,0,0,0,217.32,172.4Zm2.77,0a.93.93,0,0,0-1.85,0,.93.93,0,1,0,1.85,0ZM215.7,183a.93.93,0,1,0-.92.92A.93.93,0,0,0,215.7,183Zm2.78,0a.93.93,0,1,0-1.85,0,.93.93,0,0,0,1.85,0Zm2.77,0a.93.93,0,1,0-1.85,0,.93.93,0,0,0,1.85,0Zm2.77,0a.93.93,0,1,0-.92.92A.93.93,0,0,0,224,183Zm2.78,0a.93.93,0,1,0-1.85,0,.93.93,0,0,0,1.85,0Zm2.77,0a.93.93,0,1,0-.92.92A.93.93,0,0,0,229.57,183Zm-13.87,7.62a.93.93,0,0,0-1.85,0,.93.93,0,1,0,1.85,0Zm2.78,0a.93.93,0,1,0-.93.93A.93.93,0,0,0,218.48,190.66Zm2.77,0a.93.93,0,1,0-.93.93A.93.93,0,0,0,221.25,190.66Zm2.77,0a.93.93,0,0,0-1.85,0,.93.93,0,1,0,1.85,0Zm2.78,0a.93.93,0,1,0-.93.93A.93.93,0,0,0,226.8,190.66Zm2.77,0a.93.93,0,0,0-1.85,0,.93.93,0,1,0,1.85,0Z" style="fill: rgb(253, 199, 1); transform-origin: 207.558px 177.832px;" id="elpjlijgomm2a" class="animable"></path><path d="M189.58,196.11h-3.24a.79.79,0,0,1-.79-.79.79.79,0,0,1,.79-.8h3.24a.8.8,0,0,1,.8.8A.79.79,0,0,1,189.58,196.11Zm.8,2.9a.79.79,0,0,0-.8-.79h-3.24a.8.8,0,0,0,0,1.59h3.24A.8.8,0,0,0,190.38,199Zm0,3.7a.8.8,0,0,0-.8-.8h-3.24a.8.8,0,0,0,0,1.6h3.24A.8.8,0,0,0,190.38,202.71Zm0,3.7a.8.8,0,0,0-.8-.8h-3.24a.8.8,0,0,0,0,1.6h3.24A.8.8,0,0,0,190.38,206.41Zm0,3.7a.8.8,0,0,0-.8-.8h-3.24a.8.8,0,0,0,0,1.6h3.24A.8.8,0,0,0,190.38,210.11Zm0,3.7a.8.8,0,0,0-.8-.8h-3.24a.8.8,0,0,0,0,1.6h3.24A.8.8,0,0,0,190.38,213.81Zm0,3.7a.8.8,0,0,0-.8-.8h-3.24a.8.8,0,0,0,0,1.6h3.24A.8.8,0,0,0,190.38,217.51Zm0,3.7a.8.8,0,0,0-.8-.8h-3.24a.8.8,0,0,0,0,1.59h3.24A.79.79,0,0,0,190.38,221.21Zm12.11-25.89a.8.8,0,0,0-.8-.8h-8.5a.8.8,0,0,0-.8.8.79.79,0,0,0,.8.79h8.5A.79.79,0,0,0,202.49,195.32Zm0,3.69a.79.79,0,0,0-.8-.79h-8.5a.8.8,0,1,0,0,1.59h8.5A.8.8,0,0,0,202.49,199Zm0,3.7a.8.8,0,0,0-.8-.8h-8.5a.8.8,0,1,0,0,1.6h8.5A.8.8,0,0,0,202.49,202.71Zm0,3.7a.8.8,0,0,0-.8-.8h-8.5a.8.8,0,0,0,0,1.6h8.5A.8.8,0,0,0,202.49,206.41Zm0,3.7a.8.8,0,0,0-.8-.8h-8.5a.8.8,0,1,0,0,1.6h8.5A.8.8,0,0,0,202.49,210.11Zm10.17,3.7a.8.8,0,0,0-.8-.8h-8.5a.8.8,0,0,0,0,1.6h8.5A.8.8,0,0,0,212.66,213.81Zm0,3.7a.8.8,0,0,0-.8-.8h-8.5a.8.8,0,1,0,0,1.6h8.5A.8.8,0,0,0,212.66,217.51Zm0,3.7a.8.8,0,0,0-.8-.8h-8.5a.8.8,0,1,0,0,1.59h8.5A.79.79,0,0,0,212.66,221.21Zm-6.44-25.89a.93.93,0,1,0-.92.92A.93.93,0,0,0,206.22,195.32Zm2.78,0a.93.93,0,1,0-1.85,0,.93.93,0,0,0,1.85,0Zm2.77,0a.93.93,0,1,0-.92.92A.93.93,0,0,0,211.77,195.32Zm2.78,0a.93.93,0,1,0-1.85,0,.93.93,0,0,0,1.85,0Zm2.77,0a.93.93,0,1,0-1.85,0,.93.93,0,0,0,1.85,0Zm2.77,0a.93.93,0,1,0-.92.92A.93.93,0,0,0,220.09,195.32Zm-13.87,7.39a.93.93,0,0,0-1.85,0,.93.93,0,1,0,1.85,0Zm2.78,0a.93.93,0,1,0-.93.93A.93.93,0,0,0,209,202.71Zm2.77,0a.93.93,0,0,0-1.85,0,.93.93,0,1,0,1.85,0Zm2.78,0a.93.93,0,1,0-.93.93A.93.93,0,0,0,214.55,202.71Zm2.77,0a.93.93,0,1,0-.93.93A.92.92,0,0,0,217.32,202.71Zm2.77,0a.93.93,0,0,0-1.85,0,.93.93,0,1,0,1.85,0Zm-4.39,10.64a.93.93,0,1,0-.92.92A.93.93,0,0,0,215.7,213.35Zm2.78,0a.93.93,0,1,0-1.85,0,.93.93,0,0,0,1.85,0Zm2.77,0a.93.93,0,1,0-1.85,0,.93.93,0,0,0,1.85,0Zm2.77,0a.93.93,0,1,0-.92.92A.93.93,0,0,0,224,213.35Zm2.78,0a.93.93,0,1,0-1.85,0,.93.93,0,0,0,1.85,0Zm2.77,0a.93.93,0,1,0-.92.92A.93.93,0,0,0,229.57,213.35ZM215.7,221a.93.93,0,0,0-1.85,0,.93.93,0,1,0,1.85,0Zm2.78,0a.93.93,0,1,0-.93.93A.93.93,0,0,0,218.48,221Zm2.77,0a.93.93,0,1,0-.93.93A.93.93,0,0,0,221.25,221Zm2.77,0a.93.93,0,0,0-1.85,0,.93.93,0,1,0,1.85,0Zm2.78,0a.93.93,0,1,0-.93.93A.93.93,0,0,0,226.8,221Zm2.77,0a.93.93,0,0,0-1.85,0,.93.93,0,1,0,1.85,0Z" style="fill: rgb(253, 199, 1); transform-origin: 207.558px 208.16px;" id="el2cv2mnqrw0d" class="animable"></path><path d="M239.27,136.21H236a.8.8,0,0,1,0-1.6h3.24a.8.8,0,0,1,0,1.6Zm.79,2.9a.79.79,0,0,0-.79-.8H236a.8.8,0,1,0,0,1.6h3.24A.79.79,0,0,0,240.06,139.11Zm0,3.7a.79.79,0,0,0-.79-.8H236a.8.8,0,0,0,0,1.6h3.24A.79.79,0,0,0,240.06,142.81Zm0,3.7a.79.79,0,0,0-.79-.8H236a.8.8,0,0,0-.8.8.79.79,0,0,0,.8.79h3.24A.79.79,0,0,0,240.06,146.51Zm0,3.69a.79.79,0,0,0-.79-.79H236a.8.8,0,1,0,0,1.59h3.24A.79.79,0,0,0,240.06,150.2Zm0,3.7a.79.79,0,0,0-.79-.79H236a.79.79,0,0,0-.8.79.8.8,0,0,0,.8.8h3.24A.79.79,0,0,0,240.06,153.9Zm0,3.7a.79.79,0,0,0-.79-.8H236a.8.8,0,0,0,0,1.6h3.24A.79.79,0,0,0,240.06,157.6Zm0,3.7a.79.79,0,0,0-.79-.8H236a.8.8,0,1,0,0,1.6h3.24A.79.79,0,0,0,240.06,161.3Zm12.11-25.89a.8.8,0,0,0-.8-.8h-8.49a.8.8,0,0,0,0,1.6h8.49A.8.8,0,0,0,252.17,135.41Zm0,3.7a.8.8,0,0,0-.8-.8h-8.49a.8.8,0,1,0,0,1.6h8.49A.8.8,0,0,0,252.17,139.11Zm0,3.7a.8.8,0,0,0-.8-.8h-8.49a.8.8,0,0,0,0,1.6h8.49A.8.8,0,0,0,252.17,142.81Zm0,3.7a.8.8,0,0,0-.8-.8h-8.49a.8.8,0,0,0-.8.8.79.79,0,0,0,.8.79h8.49A.79.79,0,0,0,252.17,146.51Zm0,3.69a.79.79,0,0,0-.8-.79h-8.49a.8.8,0,1,0,0,1.59h8.49A.8.8,0,0,0,252.17,150.2Zm10.17,3.7a.79.79,0,0,0-.8-.79h-8.49a.79.79,0,0,0-.8.79.8.8,0,0,0,.8.8h8.49A.8.8,0,0,0,262.34,153.9Zm0,3.7a.8.8,0,0,0-.8-.8h-8.49a.8.8,0,0,0,0,1.6h8.49A.8.8,0,0,0,262.34,157.6Zm0,3.7a.8.8,0,0,0-.8-.8h-8.49a.8.8,0,1,0,0,1.6h8.49A.8.8,0,0,0,262.34,161.3Zm-6.43-25.89a.93.93,0,1,0-.93.93A.93.93,0,0,0,255.91,135.41Zm2.77,0a.93.93,0,0,0-1.85,0,.93.93,0,1,0,1.85,0Zm2.78,0a.93.93,0,1,0-.93.93A.93.93,0,0,0,261.46,135.41Zm2.77,0a.93.93,0,0,0-1.85,0,.93.93,0,1,0,1.85,0Zm2.77,0a.93.93,0,0,0-1.85,0,.93.93,0,1,0,1.85,0Zm2.78,0a.93.93,0,1,0-.93.93A.93.93,0,0,0,269.78,135.41Zm-13.87,7.4a.93.93,0,1,0-1.85,0,.93.93,0,0,0,1.85,0Zm2.77,0a.93.93,0,1,0-.92.92A.93.93,0,0,0,258.68,142.81Zm2.78,0a.93.93,0,1,0-1.85,0,.93.93,0,0,0,1.85,0Zm2.77,0a.93.93,0,1,0-.92.92A.93.93,0,0,0,264.23,142.81Zm2.77,0a.93.93,0,1,0-.92.92A.93.93,0,0,0,267,142.81Zm2.78,0a.93.93,0,1,0-1.85,0,.93.93,0,0,0,1.85,0Zm-4.39,10.63a.93.93,0,1,0-.93.93A.93.93,0,0,0,265.39,153.44Zm2.77,0a.93.93,0,0,0-1.85,0,.93.93,0,1,0,1.85,0Zm2.77,0a.93.93,0,0,0-1.85,0,.93.93,0,1,0,1.85,0Zm2.78,0a.93.93,0,1,0-.93.93A.93.93,0,0,0,273.71,153.44Zm2.77,0a.93.93,0,0,0-1.85,0,.93.93,0,1,0,1.85,0Zm2.77,0a.92.92,0,1,0-.92.93A.92.92,0,0,0,279.25,153.44Zm-13.86,7.63a.93.93,0,1,0-1.85,0,.93.93,0,0,0,1.85,0Zm2.77,0a.93.93,0,1,0-.92.92A.93.93,0,0,0,268.16,161.07Zm2.77,0a.93.93,0,1,0-.92.92A.93.93,0,0,0,270.93,161.07Zm2.78,0a.93.93,0,1,0-1.85,0,.93.93,0,0,0,1.85,0Zm2.77,0a.93.93,0,1,0-.92.92A.93.93,0,0,0,276.48,161.07Zm2.77,0a.92.92,0,1,0-.92.92A.93.93,0,0,0,279.25,161.07Z" style="fill: rgb(253, 199, 1); transform-origin: 257.18px 148.29px;" id="elquhgk5vin9n" class="animable"></path><path d="M239.27,166.52H236a.8.8,0,0,1,0-1.6h3.24a.8.8,0,0,1,0,1.6Zm.79,2.9a.79.79,0,0,0-.79-.8H236a.8.8,0,0,0,0,1.6h3.24A.79.79,0,0,0,240.06,169.42Zm0,3.7a.79.79,0,0,0-.79-.8H236a.8.8,0,1,0,0,1.6h3.24A.79.79,0,0,0,240.06,173.12Zm0,3.7a.79.79,0,0,0-.79-.8H236a.8.8,0,1,0,0,1.59h3.24A.79.79,0,0,0,240.06,176.82Zm0,3.69a.79.79,0,0,0-.79-.79H236a.8.8,0,1,0,0,1.59h3.24A.79.79,0,0,0,240.06,180.51Zm0,3.7a.79.79,0,0,0-.79-.79H236a.79.79,0,0,0-.8.79.8.8,0,0,0,.8.8h3.24A.79.79,0,0,0,240.06,184.21Zm0,3.7a.79.79,0,0,0-.79-.8H236a.8.8,0,1,0,0,1.6h3.24A.79.79,0,0,0,240.06,187.91Zm0,3.7a.79.79,0,0,0-.79-.8H236a.8.8,0,1,0,0,1.6h3.24A.79.79,0,0,0,240.06,191.61Zm12.11-25.89a.8.8,0,0,0-.8-.8h-8.49a.8.8,0,0,0,0,1.6h8.49A.8.8,0,0,0,252.17,165.72Zm0,3.7a.8.8,0,0,0-.8-.8h-8.49a.8.8,0,0,0,0,1.6h8.49A.8.8,0,0,0,252.17,169.42Zm0,3.7a.8.8,0,0,0-.8-.8h-8.49a.8.8,0,1,0,0,1.6h8.49A.8.8,0,0,0,252.17,173.12Zm0,3.7a.8.8,0,0,0-.8-.8h-8.49a.8.8,0,1,0,0,1.59h8.49A.79.79,0,0,0,252.17,176.82Zm0,3.69a.79.79,0,0,0-.8-.79h-8.49a.8.8,0,1,0,0,1.59h8.49A.8.8,0,0,0,252.17,180.51Zm10.17,3.7a.79.79,0,0,0-.8-.79h-8.49a.79.79,0,0,0-.8.79.8.8,0,0,0,.8.8h8.49A.8.8,0,0,0,262.34,184.21Zm0,3.7a.8.8,0,0,0-.8-.8h-8.49a.8.8,0,0,0,0,1.6h8.49A.8.8,0,0,0,262.34,187.91Zm0,3.7a.8.8,0,0,0-.8-.8h-8.49a.8.8,0,1,0,0,1.6h8.49A.8.8,0,0,0,262.34,191.61Zm-6.43-25.89a.93.93,0,1,0-.93.93A.93.93,0,0,0,255.91,165.72Zm2.77,0a.93.93,0,0,0-1.85,0,.93.93,0,1,0,1.85,0Zm2.78,0a.93.93,0,1,0-.93.93A.93.93,0,0,0,261.46,165.72Zm2.77,0a.93.93,0,0,0-1.85,0,.93.93,0,1,0,1.85,0Zm2.77,0a.93.93,0,0,0-1.85,0,.93.93,0,1,0,1.85,0Zm2.78,0a.93.93,0,1,0-.93.93A.93.93,0,0,0,269.78,165.72Zm-13.87,7.4a.93.93,0,1,0-1.85,0,.93.93,0,0,0,1.85,0Zm2.77,0a.93.93,0,1,0-.92.92A.93.93,0,0,0,258.68,173.12Zm2.78,0a.93.93,0,1,0-1.85,0,.93.93,0,0,0,1.85,0Zm2.77,0a.93.93,0,1,0-.92.92A.93.93,0,0,0,264.23,173.12Zm2.77,0a.93.93,0,1,0-.92.92A.93.93,0,0,0,267,173.12Zm2.78,0a.93.93,0,1,0-1.85,0,.93.93,0,0,0,1.85,0Zm-4.39,10.63a.93.93,0,1,0-.93.93A.93.93,0,0,0,265.39,183.75Zm2.77,0a.93.93,0,0,0-1.85,0,.93.93,0,1,0,1.85,0Zm2.77,0a.93.93,0,0,0-1.85,0,.93.93,0,1,0,1.85,0Zm2.78,0a.93.93,0,1,0-.93.93A.93.93,0,0,0,273.71,183.75Zm2.77,0a.93.93,0,0,0-1.85,0,.93.93,0,1,0,1.85,0Zm2.77,0a.92.92,0,1,0-.92.93A.92.92,0,0,0,279.25,183.75Zm-13.86,7.63a.93.93,0,1,0-1.85,0,.93.93,0,0,0,1.85,0Zm2.77,0a.93.93,0,1,0-.92.92A.93.93,0,0,0,268.16,191.38Zm2.77,0a.93.93,0,1,0-.92.92A.93.93,0,0,0,270.93,191.38Zm2.78,0a.93.93,0,1,0-1.85,0,.93.93,0,0,0,1.85,0Zm2.77,0a.93.93,0,1,0-.92.92A.93.93,0,0,0,276.48,191.38Zm2.77,0a.92.92,0,1,0-.92.92A.93.93,0,0,0,279.25,191.38Z" style="fill: rgb(253, 199, 1); transform-origin: 257.18px 178.6px;" id="el67qy5t180bp" class="animable"></path><path d="M80.18,203.44H76.94a.8.8,0,1,1,0-1.6h3.24a.8.8,0,1,1,0,1.6Zm.8,2.9a.8.8,0,0,0-.8-.8H76.94a.8.8,0,0,0,0,1.6h3.24A.8.8,0,0,0,81,206.34Zm0,3.7a.8.8,0,0,0-.8-.8H76.94a.8.8,0,1,0,0,1.6h3.24A.8.8,0,0,0,81,210Zm0,3.7a.8.8,0,0,0-.8-.8H76.94a.8.8,0,0,0,0,1.6h3.24A.8.8,0,0,0,81,213.74Zm0,3.7a.8.8,0,0,0-.8-.8H76.94a.8.8,0,1,0,0,1.59h3.24A.79.79,0,0,0,81,217.44Zm0,3.69a.79.79,0,0,0-.8-.79H76.94a.8.8,0,1,0,0,1.59h3.24A.8.8,0,0,0,81,221.13Zm0,3.7a.8.8,0,0,0-.8-.8H76.94a.8.8,0,0,0,0,1.6h3.24A.8.8,0,0,0,81,224.83Zm0,3.7a.8.8,0,0,0-.8-.8H76.94a.8.8,0,1,0,0,1.6h3.24A.8.8,0,0,0,81,228.53Zm12.1-25.89a.8.8,0,0,0-.8-.8H83.79a.8.8,0,1,0,0,1.6h8.49A.8.8,0,0,0,93.08,202.64Zm0,3.7a.8.8,0,0,0-.8-.8H83.79a.8.8,0,1,0,0,1.6h8.49A.8.8,0,0,0,93.08,206.34Zm0,3.7a.8.8,0,0,0-.8-.8H83.79a.8.8,0,1,0,0,1.6h8.49A.8.8,0,0,0,93.08,210Zm0,3.7a.8.8,0,0,0-.8-.8H83.79a.8.8,0,1,0,0,1.6h8.49A.8.8,0,0,0,93.08,213.74Zm0,3.7a.8.8,0,0,0-.8-.8H83.79a.8.8,0,1,0,0,1.59h8.49A.79.79,0,0,0,93.08,217.44Zm10.17,3.69a.79.79,0,0,0-.8-.79H94a.8.8,0,1,0,0,1.59h8.49A.79.79,0,0,0,103.25,221.13Zm0,3.7a.8.8,0,0,0-.8-.8H94a.8.8,0,0,0,0,1.6h8.49A.8.8,0,0,0,103.25,224.83Zm0,3.7a.8.8,0,0,0-.8-.8H94a.8.8,0,1,0,0,1.6h8.49A.8.8,0,0,0,103.25,228.53Zm-6.43-25.89a.93.93,0,0,0-1.85,0,.93.93,0,1,0,1.85,0Zm2.77,0a.93.93,0,0,0-1.85,0,.93.93,0,1,0,1.85,0Zm2.78,0a.93.93,0,1,0-.93.93A.93.93,0,0,0,102.37,202.64Zm2.77,0a.93.93,0,0,0-1.85,0,.93.93,0,1,0,1.85,0Zm2.78,0a.93.93,0,1,0-.93.93A.93.93,0,0,0,107.92,202.64Zm2.77,0a.93.93,0,1,0-.93.93A.92.92,0,0,0,110.69,202.64ZM96.82,210a.93.93,0,1,0-.92.92A.93.93,0,0,0,96.82,210Zm2.77,0a.93.93,0,1,0-.92.92A.93.93,0,0,0,99.59,210Zm2.78,0a.93.93,0,1,0-1.85,0,.93.93,0,0,0,1.85,0Zm2.77,0a.93.93,0,1,0-.92.92A.93.93,0,0,0,105.14,210Zm2.78,0a.93.93,0,1,0-1.85,0,.93.93,0,0,0,1.85,0Zm2.77,0a.93.93,0,1,0-1.85,0,.93.93,0,0,0,1.85,0Zm-4.39,10.63a.93.93,0,1,0-.93.93A.93.93,0,0,0,106.3,220.67Zm2.77,0a.93.93,0,0,0-1.85,0,.93.93,0,1,0,1.85,0Zm2.78,0a.93.93,0,1,0-.93.93A.93.93,0,0,0,111.85,220.67Zm2.77,0a.93.93,0,1,0-.93.93A.93.93,0,0,0,114.62,220.67Zm2.77,0a.93.93,0,0,0-1.85,0,.93.93,0,1,0,1.85,0Zm2.78,0a.93.93,0,1,0-.93.93A.93.93,0,0,0,120.17,220.67ZM106.3,228.3a.93.93,0,1,0-.93.92A.93.93,0,0,0,106.3,228.3Zm2.77,0a.93.93,0,1,0-.92.92A.92.92,0,0,0,109.07,228.3Zm2.78,0a.93.93,0,1,0-.93.92A.93.93,0,0,0,111.85,228.3Zm2.77,0a.93.93,0,1,0-.93.92A.93.93,0,0,0,114.62,228.3Zm2.77,0a.93.93,0,1,0-.92.92A.92.92,0,0,0,117.39,228.3Zm2.78,0a.93.93,0,1,0-.93.92A.93.93,0,0,0,120.17,228.3Z" style="fill: rgb(253, 199, 1); transform-origin: 98.1104px 215.52px;" id="el1kkht4ropr2" class="animable"></path><path d="M80.18,233H76.94a.8.8,0,0,1,0-1.6h3.24a.8.8,0,0,1,0,1.6Zm.8,2.9a.8.8,0,0,0-.8-.8H76.94a.8.8,0,1,0,0,1.59h3.24A.79.79,0,0,0,81,235.94Zm0,3.69a.79.79,0,0,0-.8-.79H76.94a.8.8,0,1,0,0,1.59h3.24A.8.8,0,0,0,81,239.63Zm0,3.7a.8.8,0,0,0-.8-.8H76.94a.8.8,0,0,0,0,1.6h3.24A.8.8,0,0,0,81,243.33Zm0,3.7a.8.8,0,0,0-.8-.8H76.94a.8.8,0,1,0,0,1.6h3.24A.8.8,0,0,0,81,247Zm0,3.7a.8.8,0,0,0-.8-.8H76.94a.8.8,0,1,0,0,1.6h3.24A.8.8,0,0,0,81,250.73Zm0,3.7a.8.8,0,0,0-.8-.8H76.94a.8.8,0,0,0,0,1.6h3.24A.8.8,0,0,0,81,254.43Zm0,3.7a.8.8,0,0,0-.8-.8H76.94a.8.8,0,0,0-.8.8.79.79,0,0,0,.8.79h3.24A.79.79,0,0,0,81,258.13Zm12.1-25.89a.8.8,0,0,0-.8-.8H83.79a.8.8,0,1,0,0,1.6h8.49A.8.8,0,0,0,93.08,232.24Zm0,3.7a.8.8,0,0,0-.8-.8H83.79a.8.8,0,1,0,0,1.59h8.49A.79.79,0,0,0,93.08,235.94Zm0,3.69a.79.79,0,0,0-.8-.79H83.79a.8.8,0,1,0,0,1.59h8.49A.8.8,0,0,0,93.08,239.63Zm0,3.7a.8.8,0,0,0-.8-.8H83.79a.8.8,0,1,0,0,1.6h8.49A.8.8,0,0,0,93.08,243.33Zm0,3.7a.8.8,0,0,0-.8-.8H83.79a.8.8,0,1,0,0,1.6h8.49A.8.8,0,0,0,93.08,247Zm10.17,3.7a.8.8,0,0,0-.8-.8H94a.8.8,0,1,0,0,1.6h8.49A.8.8,0,0,0,103.25,250.73Zm0,3.7a.8.8,0,0,0-.8-.8H94a.8.8,0,0,0,0,1.6h8.49A.8.8,0,0,0,103.25,254.43Zm0,3.7a.8.8,0,0,0-.8-.8H94a.8.8,0,0,0-.8.8.79.79,0,0,0,.8.79h8.49A.79.79,0,0,0,103.25,258.13Zm-6.43-25.89a.93.93,0,1,0-.92.92A.93.93,0,0,0,96.82,232.24Zm2.77,0a.93.93,0,1,0-.92.92A.93.93,0,0,0,99.59,232.24Zm2.78,0a.93.93,0,1,0-1.85,0,.93.93,0,0,0,1.85,0Zm2.77,0a.93.93,0,1,0-.92.92A.93.93,0,0,0,105.14,232.24Zm2.78,0a.93.93,0,1,0-1.85,0,.93.93,0,0,0,1.85,0Zm2.77,0a.93.93,0,1,0-1.85,0,.93.93,0,0,0,1.85,0Zm-13.87,7.39a.93.93,0,1,0-.92.93A.92.92,0,0,0,96.82,239.63Zm2.77,0a.93.93,0,0,0-1.85,0,.93.93,0,1,0,1.85,0Zm2.78,0a.93.93,0,1,0-.93.93A.93.93,0,0,0,102.37,239.63Zm2.77,0a.93.93,0,0,0-1.85,0,.93.93,0,1,0,1.85,0Zm2.78,0a.93.93,0,1,0-.93.93A.93.93,0,0,0,107.92,239.63Zm2.77,0a.93.93,0,1,0-.93.93A.92.92,0,0,0,110.69,239.63Zm-4.39,10.64a.93.93,0,1,0-1.85,0,.93.93,0,0,0,1.85,0Zm2.77,0a.93.93,0,1,0-.92.92A.93.93,0,0,0,109.07,250.27Zm2.78,0a.93.93,0,1,0-1.85,0,.93.93,0,0,0,1.85,0Zm2.77,0a.93.93,0,1,0-1.85,0,.93.93,0,0,0,1.85,0Zm2.77,0a.93.93,0,1,0-.92.92A.93.93,0,0,0,117.39,250.27Zm2.78,0a.93.93,0,1,0-1.85,0,.93.93,0,0,0,1.85,0ZM106.3,257.9a.93.93,0,1,0-1.85,0,.93.93,0,0,0,1.85,0Zm2.77,0a.93.93,0,1,0-.92.92A.92.92,0,0,0,109.07,257.9Zm2.78,0a.93.93,0,1,0-1.85,0,.93.93,0,0,0,1.85,0Zm2.77,0a.93.93,0,1,0-1.85,0,.93.93,0,0,0,1.85,0Zm2.77,0a.93.93,0,1,0-.92.92A.92.92,0,0,0,117.39,257.9Zm2.78,0a.93.93,0,1,0-1.85,0,.93.93,0,0,0,1.85,0Z" style="fill: rgb(253, 199, 1); transform-origin: 98.1128px 245.027px;" id="ellpsp4fka768" class="animable"></path><path d="M80.18,263.35H76.94a.8.8,0,1,1,0-1.6h3.24a.8.8,0,0,1,0,1.6Zm.8,2.9a.8.8,0,0,0-.8-.8H76.94a.8.8,0,1,0,0,1.59h3.24A.79.79,0,0,0,81,266.25Zm0,3.69a.79.79,0,0,0-.8-.79H76.94a.8.8,0,1,0,0,1.59h3.24A.8.8,0,0,0,81,269.94Zm0,3.7a.8.8,0,0,0-.8-.8H76.94a.8.8,0,1,0,0,1.6h3.24A.8.8,0,0,0,81,273.64Zm0,3.7a.8.8,0,0,0-.8-.8H76.94a.8.8,0,1,0,0,1.6h3.24A.8.8,0,0,0,81,277.34Zm0,3.7a.8.8,0,0,0-.8-.8H76.94a.8.8,0,0,0,0,1.6h3.24A.8.8,0,0,0,81,281Zm0,3.7a.8.8,0,0,0-.8-.8H76.94a.8.8,0,1,0,0,1.6h3.24A.8.8,0,0,0,81,284.74Zm0,3.7a.8.8,0,0,0-.8-.8H76.94a.8.8,0,0,0-.8.8.79.79,0,0,0,.8.79h3.24A.79.79,0,0,0,81,288.44Zm12.1-25.89a.8.8,0,0,0-.8-.8H83.79a.8.8,0,0,0,0,1.6h8.49A.8.8,0,0,0,93.08,262.55Zm0,3.7a.8.8,0,0,0-.8-.8H83.79a.8.8,0,1,0,0,1.59h8.49A.79.79,0,0,0,93.08,266.25Zm0,3.69a.79.79,0,0,0-.8-.79H83.79a.8.8,0,1,0,0,1.59h8.49A.8.8,0,0,0,93.08,269.94Zm0,3.7a.8.8,0,0,0-.8-.8H83.79a.8.8,0,1,0,0,1.6h8.49A.8.8,0,0,0,93.08,273.64Zm0,3.7a.8.8,0,0,0-.8-.8H83.79a.8.8,0,1,0,0,1.6h8.49A.8.8,0,0,0,93.08,277.34Zm10.17,3.7a.8.8,0,0,0-.8-.8H94a.8.8,0,0,0,0,1.6h8.49A.8.8,0,0,0,103.25,281Zm0,3.7a.8.8,0,0,0-.8-.8H94a.8.8,0,1,0,0,1.6h8.49A.8.8,0,0,0,103.25,284.74Zm0,3.7a.8.8,0,0,0-.8-.8H94a.8.8,0,0,0-.8.8.79.79,0,0,0,.8.79h8.49A.79.79,0,0,0,103.25,288.44Zm-6.43-25.89a.93.93,0,1,0-.92.92A.93.93,0,0,0,96.82,262.55Zm2.77,0a.93.93,0,1,0-.92.92A.93.93,0,0,0,99.59,262.55Zm2.78,0a.93.93,0,1,0-1.85,0,.93.93,0,0,0,1.85,0Zm2.77,0a.93.93,0,1,0-.92.92A.93.93,0,0,0,105.14,262.55Zm2.78,0a.93.93,0,1,0-1.85,0,.93.93,0,0,0,1.85,0Zm2.77,0a.93.93,0,1,0-1.85,0,.93.93,0,0,0,1.85,0Zm-13.87,7.39a.93.93,0,0,0-1.85,0,.93.93,0,1,0,1.85,0Zm2.77,0a.93.93,0,0,0-1.85,0,.93.93,0,1,0,1.85,0Zm2.78,0a.93.93,0,1,0-.93.93A.93.93,0,0,0,102.37,269.94Zm2.77,0a.93.93,0,0,0-1.85,0,.93.93,0,1,0,1.85,0Zm2.78,0a.93.93,0,1,0-.93.93A.93.93,0,0,0,107.92,269.94Zm2.77,0a.93.93,0,1,0-.93.93A.92.92,0,0,0,110.69,269.94Zm-4.39,10.64a.93.93,0,1,0-1.85,0,.93.93,0,0,0,1.85,0Zm2.77,0a.93.93,0,1,0-.92.92A.93.93,0,0,0,109.07,280.58Zm2.78,0a.93.93,0,1,0-1.85,0,.93.93,0,0,0,1.85,0Zm2.77,0a.93.93,0,1,0-1.85,0,.93.93,0,0,0,1.85,0Zm2.77,0a.93.93,0,1,0-.92.92A.93.93,0,0,0,117.39,280.58Zm2.78,0a.93.93,0,1,0-1.85,0,.93.93,0,0,0,1.85,0Zm-13.87,7.63a.93.93,0,1,0-1.85,0,.93.93,0,0,0,1.85,0Zm2.77,0a.93.93,0,1,0-.92.92A.92.92,0,0,0,109.07,288.21Zm2.78,0a.93.93,0,1,0-1.85,0,.93.93,0,0,0,1.85,0Zm2.77,0a.93.93,0,1,0-1.85,0,.93.93,0,0,0,1.85,0Zm2.77,0a.93.93,0,1,0-.92.92A.92.92,0,0,0,117.39,288.21Zm2.78,0a.93.93,0,1,0-1.85,0,.93.93,0,0,0,1.85,0Z" style="fill: rgb(253, 199, 1); transform-origin: 98.1128px 275.377px;" id="elov0e37cyhf9" class="animable"></path><path d="M129.86,203.44h-3.23a.8.8,0,1,1,0-1.6h3.23a.8.8,0,0,1,0,1.6Zm.8,2.9a.8.8,0,0,0-.8-.8h-3.23a.8.8,0,0,0,0,1.6h3.23A.8.8,0,0,0,130.66,206.34Zm0,3.7a.8.8,0,0,0-.8-.8h-3.23a.8.8,0,1,0,0,1.6h3.23A.8.8,0,0,0,130.66,210Zm0,3.7a.8.8,0,0,0-.8-.8h-3.23a.8.8,0,0,0,0,1.6h3.23A.8.8,0,0,0,130.66,213.74Zm0,3.7a.8.8,0,0,0-.8-.8h-3.23a.8.8,0,1,0,0,1.59h3.23A.79.79,0,0,0,130.66,217.44Zm0,3.69a.79.79,0,0,0-.8-.79h-3.23a.8.8,0,1,0,0,1.59h3.23A.8.8,0,0,0,130.66,221.13Zm0,3.7a.8.8,0,0,0-.8-.8h-3.23a.8.8,0,0,0,0,1.6h3.23A.8.8,0,0,0,130.66,224.83Zm0,3.7a.8.8,0,0,0-.8-.8h-3.23a.8.8,0,1,0,0,1.6h3.23A.8.8,0,0,0,130.66,228.53Zm12.11-25.89a.8.8,0,0,0-.8-.8h-8.5a.8.8,0,0,0,0,1.6H142A.8.8,0,0,0,142.77,202.64Zm0,3.7a.8.8,0,0,0-.8-.8h-8.5a.8.8,0,0,0,0,1.6H142A.8.8,0,0,0,142.77,206.34Zm0,3.7a.8.8,0,0,0-.8-.8h-8.5a.8.8,0,0,0,0,1.6H142A.8.8,0,0,0,142.77,210Zm0,3.7a.8.8,0,0,0-.8-.8h-8.5a.8.8,0,0,0,0,1.6H142A.8.8,0,0,0,142.77,213.74Zm0,3.7a.8.8,0,0,0-.8-.8h-8.5a.8.8,0,0,0,0,1.59H142A.79.79,0,0,0,142.77,217.44Zm10.17,3.69a.79.79,0,0,0-.8-.79h-8.5a.8.8,0,0,0,0,1.59h8.5A.8.8,0,0,0,152.94,221.13Zm0,3.7a.8.8,0,0,0-.8-.8h-8.5a.8.8,0,0,0,0,1.6h8.5A.8.8,0,0,0,152.94,224.83Zm0,3.7a.8.8,0,0,0-.8-.8h-8.5a.8.8,0,0,0,0,1.6h8.5A.8.8,0,0,0,152.94,228.53Zm-6.44-25.89a.92.92,0,1,0-.92.93A.92.92,0,0,0,146.5,202.64Zm2.78,0a.93.93,0,1,0-.93.93A.93.93,0,0,0,149.28,202.64Zm2.77,0a.93.93,0,0,0-1.85,0,.93.93,0,1,0,1.85,0Zm2.78,0a.93.93,0,1,0-.93.93A.93.93,0,0,0,154.83,202.64Zm2.77,0a.93.93,0,0,0-1.85,0,.93.93,0,1,0,1.85,0Zm2.77,0a.93.93,0,0,0-1.85,0,.93.93,0,1,0,1.85,0ZM146.5,210a.92.92,0,1,0-.92.92A.93.93,0,0,0,146.5,210Zm2.78,0a.93.93,0,1,0-1.85,0,.93.93,0,0,0,1.85,0Zm2.77,0a.93.93,0,1,0-.92.92A.93.93,0,0,0,152.05,210Zm2.78,0a.93.93,0,1,0-1.85,0,.93.93,0,0,0,1.85,0Zm2.77,0a.93.93,0,1,0-.92.92A.93.93,0,0,0,157.6,210Zm2.77,0a.93.93,0,1,0-.92.92A.93.93,0,0,0,160.37,210ZM156,220.67a.93.93,0,0,0-1.85,0,.93.93,0,1,0,1.85,0Zm2.78,0a.93.93,0,1,0-.93.93A.93.93,0,0,0,158.76,220.67Zm2.77,0a.93.93,0,0,0-1.85,0,.93.93,0,1,0,1.85,0Zm2.77,0a.93.93,0,0,0-1.85,0,.93.93,0,1,0,1.85,0Zm2.78,0a.93.93,0,1,0-.93.93A.93.93,0,0,0,167.08,220.67Zm2.77,0a.93.93,0,0,0-1.85,0,.93.93,0,1,0,1.85,0ZM156,228.3a.93.93,0,1,0-.92.92A.92.92,0,0,0,156,228.3Zm2.78,0a.93.93,0,1,0-.93.92A.93.93,0,0,0,158.76,228.3Zm2.77,0a.93.93,0,1,0-.92.92A.92.92,0,0,0,161.53,228.3Zm2.77,0a.93.93,0,1,0-.92.92A.92.92,0,0,0,164.3,228.3Zm2.78,0a.93.93,0,1,0-.93.92A.93.93,0,0,0,167.08,228.3Zm2.77,0a.93.93,0,1,0-.92.92A.92.92,0,0,0,169.85,228.3Z" style="fill: rgb(253, 199, 1); transform-origin: 147.808px 215.52px;" id="elrd7iae8a1o" class="animable"></path><path d="M129.86,233.75h-3.23a.8.8,0,1,1,0-1.6h3.23a.8.8,0,0,1,0,1.6Zm.8,2.9a.8.8,0,0,0-.8-.8h-3.23a.8.8,0,0,0,0,1.6h3.23A.8.8,0,0,0,130.66,236.65Zm0,3.7a.8.8,0,0,0-.8-.8h-3.23a.8.8,0,1,0,0,1.6h3.23A.8.8,0,0,0,130.66,240.35Zm0,3.7a.8.8,0,0,0-.8-.8h-3.23a.8.8,0,0,0,0,1.6h3.23A.8.8,0,0,0,130.66,244.05Zm0,3.7a.8.8,0,0,0-.8-.8h-3.23a.8.8,0,1,0,0,1.59h3.23A.79.79,0,0,0,130.66,247.75Zm0,3.69a.79.79,0,0,0-.8-.79h-3.23a.8.8,0,1,0,0,1.59h3.23A.8.8,0,0,0,130.66,251.44Zm0,3.7a.8.8,0,0,0-.8-.8h-3.23a.8.8,0,1,0,0,1.6h3.23A.8.8,0,0,0,130.66,255.14Zm0,3.7a.8.8,0,0,0-.8-.8h-3.23a.8.8,0,1,0,0,1.6h3.23A.8.8,0,0,0,130.66,258.84ZM142.77,233a.8.8,0,0,0-.8-.8h-8.5a.8.8,0,0,0,0,1.6H142A.8.8,0,0,0,142.77,233Zm0,3.7a.8.8,0,0,0-.8-.8h-8.5a.8.8,0,0,0,0,1.6H142A.8.8,0,0,0,142.77,236.65Zm0,3.7a.8.8,0,0,0-.8-.8h-8.5a.8.8,0,0,0,0,1.6H142A.8.8,0,0,0,142.77,240.35Zm0,3.7a.8.8,0,0,0-.8-.8h-8.5a.8.8,0,0,0,0,1.6H142A.8.8,0,0,0,142.77,244.05Zm0,3.7a.8.8,0,0,0-.8-.8h-8.5a.8.8,0,0,0,0,1.59H142A.79.79,0,0,0,142.77,247.75Zm10.17,3.69a.79.79,0,0,0-.8-.79h-8.5a.8.8,0,0,0,0,1.59h8.5A.8.8,0,0,0,152.94,251.44Zm0,3.7a.8.8,0,0,0-.8-.8h-8.5a.8.8,0,0,0,0,1.6h8.5A.8.8,0,0,0,152.94,255.14Zm0,3.7a.8.8,0,0,0-.8-.8h-8.5a.8.8,0,0,0,0,1.6h8.5A.8.8,0,0,0,152.94,258.84ZM146.5,233a.92.92,0,1,0-.92.93A.92.92,0,0,0,146.5,233Zm2.78,0a.93.93,0,1,0-.93.93A.93.93,0,0,0,149.28,233Zm2.77,0a.93.93,0,0,0-1.85,0,.93.93,0,1,0,1.85,0Zm2.78,0a.93.93,0,1,0-.93.93A.93.93,0,0,0,154.83,233Zm2.77,0a.93.93,0,0,0-1.85,0,.93.93,0,1,0,1.85,0Zm2.77,0a.93.93,0,0,0-1.85,0,.93.93,0,1,0,1.85,0Zm-13.87,7.4a.92.92,0,1,0-.92.92A.93.93,0,0,0,146.5,240.35Zm2.78,0a.93.93,0,1,0-1.85,0,.93.93,0,0,0,1.85,0Zm2.77,0a.93.93,0,1,0-.92.92A.93.93,0,0,0,152.05,240.35Zm2.78,0a.93.93,0,1,0-1.85,0,.93.93,0,0,0,1.85,0Zm2.77,0a.93.93,0,1,0-.92.92A.93.93,0,0,0,157.6,240.35Zm2.77,0a.93.93,0,1,0-.92.92A.93.93,0,0,0,160.37,240.35ZM156,251a.93.93,0,0,0-1.85,0,.93.93,0,1,0,1.85,0Zm2.78,0a.93.93,0,1,0-.93.93A.93.93,0,0,0,158.76,251Zm2.77,0a.93.93,0,0,0-1.85,0,.93.93,0,1,0,1.85,0Zm2.77,0a.93.93,0,0,0-1.85,0,.93.93,0,1,0,1.85,0Zm2.78,0a.93.93,0,1,0-.93.93A.93.93,0,0,0,167.08,251Zm2.77,0a.93.93,0,0,0-1.85,0,.93.93,0,1,0,1.85,0ZM156,258.61a.93.93,0,1,0-.92.92A.92.92,0,0,0,156,258.61Zm2.78,0a.93.93,0,1,0-.93.92A.93.93,0,0,0,158.76,258.61Zm2.77,0a.93.93,0,1,0-.92.92A.92.92,0,0,0,161.53,258.61Zm2.77,0a.93.93,0,1,0-.92.92A.92.92,0,0,0,164.3,258.61Zm2.78,0a.93.93,0,1,0-.93.92A.93.93,0,0,0,167.08,258.61Zm2.77,0a.93.93,0,1,0-.92.92A.92.92,0,0,0,169.85,258.61Z" style="fill: rgb(253, 199, 1); transform-origin: 147.808px 245.88px;" id="el21tklramx2d" class="animable"></path></g><g id="freepik--Chair--inject-109" class="animable" style="transform-origin: 143.644px 331.388px;"><path d="M79.5,406.28s-7-95-12.5-118.5,21.5-28.5,60.5-31.5,57-.5,65.5,5,12.27,70.43,18,93.5,10,53,10,53Z" style="fill: rgb(38, 50, 56); stroke: rgb(38, 50, 56); stroke-linecap: round; stroke-linejoin: round; transform-origin: 143.644px 331.388px;" id="elz911th020ws" class="animable"></path></g><g id="freepik--Plants--inject-109" class="animable" style="transform-origin: 420.37px 307.14px;"><path d="M424.27,327.55c-5.35,6.69-8,10.42-9.1,12.11a128.73,128.73,0,0,1,6.11-21.59A63.64,63.64,0,0,0,425,301.19l-.5.27-.46-.89c.18-.1,18.42-9.78,23.58-18.91l.87.5c-4.66,8.24-19.06,16.59-23,18.76,3.74-.36,15.42-2.13,22.37-10.72,8.35-10.31,6.88-23.09,6.88-23.09S439,277.92,432.62,286.27a59.45,59.45,0,0,0-7.44,12.41,86.74,86.74,0,0,0-1.55-20.31c5.25-4.13,24.56-20,26.68-31.9,2.46-13.75-1-37.34-1-37.34a121.44,121.44,0,0,1-6.88,14.25c-4.42,7.86-18.18,20.15-20.64,33.41a57.93,57.93,0,0,0-1,10.06,197,197,0,0,0-7.94-21.75,41.4,41.4,0,0,1-2-5.85h0l-.43-.26c.09-.15,8.95-15.09,8.95-19.38h1c0,4-6.76,15.9-8.63,19.1,3.09-1.86,8.13-5.67,10-11.59,2.82-8.79-1.35-16.71-1.35-16.71s-7.47,11-9.51,18a41.51,41.51,0,0,0-1.71,9.85c-1.43-3.64-3.62-8.58-6.14-11.93-4.42-5.9-7.37-14.74-7.37-14.74s-5.4,9.33-1.47,19.16c3.23,8.07,12.42,11.17,15.6,12,.35,1.07.74,2.11,1.17,3.11a168.38,168.38,0,0,1,10.06,30.24c-2.29-3.05-6.61-8.42-10.7-11.42-5.94-4.36-11.33-12-11.33-12s-2.46,10.5,4.15,18.77c5.4,6.75,15,7.08,18.36,7,2.27,11.9,2.53,24.32-1.32,36.32-.25-2.33-1.65-8.67-9.37-15.76-9.74-9-29.23-37.6-29.23-37.6s1.55,33.81,10.89,44.92c8.56,10.19,24.72,9.59,27.38,9.42-.18.53-.36,1.06-.56,1.59-6.15,16.53-7.45,28.12-7.6,34.25H400.19v53.56h31.94V351.62h-18.3a76,76,0,0,1,1.08-10.42l-.33.09-.27-1c.2-.05,20.21-5.69,34.2-20.08l.72.69c-11.29,11.62-26.43,17.6-32.24,19.58,5.78-.71,19.89-2.84,26.44-7.08,8.36-5.4,15.73-21.62,15.73-21.62S432.13,317.72,424.27,327.55Zm-15.2-87a25.11,25.11,0,0,1-12.82-17.16l1-.2a24,24,0,0,0,12.25,16.45Zm14.14,38.16L423,279l-.38-.16c-.56-.22-13.63-5.6-18.95-13.37l.83-.57c4.65,6.81,15.91,11.91,18.12,12.86,1.69-2.6,12.31-19.08,16-29.44l.94.34C435.52,260,423.34,278.5,423.21,278.69Zm-4.65,36.67c-.15-.05-15.73-5.92-22.67-19.38l.89-.45c6.76,13.11,22,18.84,22.13,18.9Z" style="fill: rgb(38, 50, 56); transform-origin: 420.37px 307.14px;" id="elplf6x4wmuk" class="animable"></path></g><g id="freepik--Character--inject-109" class="animable" style="transform-origin: 204.38px 298.652px;"><path d="M200.49,270.2s-28.51,6.05-52.27,19.44S105.89,313.83,105.89,319s-9.51,87.26-9.51,87.26h216s-21.17-45.36-24.62-64.8-7.35-32-18.58-44.49S225.11,268.48,200.49,270.2Z" style="fill: rgb(255, 255, 255); transform-origin: 204.38px 338.166px;" id="elrkaodhtzcac" class="animable"></path><g style="clip-path: url(&quot;#freepik--clip-path--inject-109&quot;); transform-origin: 185.74px 339.285px;" id="elssqp6m5v7oq" class="animable"><path d="M116.75,349.35c3.2-2.28,9.6,15.08,11.42,11s-11.42-24.67-12.33-32,7.76-8.23,17.82-15.08,19.19-12.34,19.19-3.2,4.11,26,7.31,19.19,10.05-15.53,10.5-3.66,0,23.76,1.38,23.76,13.7-12.79,16.9-19.19-3.66-22.84-3.66-30.15,6.4-17.36,6.4-17.36l.41-10.35c-10.23,2.8-28.09,8.45-43.87,17.34C124.46,303,105.89,313.83,105.89,319s-9.51,87.26-9.51,87.26H108.2C110.4,385.93,114.49,351,116.75,349.35Z" style="fill: rgb(253, 199, 1); transform-origin: 144.235px 339.285px;" id="elwr3khx61cbl" class="animable"></path><g id="eljfslg11rmyi"><path d="M116.75,349.35c3.2-2.28,9.6,15.08,11.42,11s-11.42-24.67-12.33-32,7.76-8.23,17.82-15.08,19.19-12.34,19.19-3.2,4.11,26,7.31,19.19,10.05-15.53,10.5-3.66,0,23.76,1.38,23.76,13.7-12.79,16.9-19.19-3.66-22.84-3.66-30.15,6.4-17.36,6.4-17.36l.41-10.35c-10.23,2.8-28.09,8.45-43.87,17.34C124.46,303,105.89,313.83,105.89,319s-9.51,87.26-9.51,87.26H108.2C110.4,385.93,114.49,351,116.75,349.35Z" style="fill: rgb(255, 255, 255); opacity: 0.5; transform-origin: 144.235px 339.285px;" class="animable"></path></g><path d="M254.43,290.37s15,7.33,20.67,14.67a44.39,44.39,0,0,0-19.67-18Z" style="fill: rgb(38, 50, 56); stroke: rgb(38, 50, 56); stroke-linecap: round; stroke-linejoin: round; transform-origin: 264.765px 296.04px;" id="ele04mweuuzvg" class="animable"></path></g><path d="M200.49,270.2s-28.51,6.05-52.27,19.44S105.89,313.83,105.89,319s-9.51,87.26-9.51,87.26h216s-21.17-45.36-24.62-64.8-7.35-32-18.58-44.49S225.11,268.48,200.49,270.2Z" style="fill: none; stroke: rgb(38, 50, 56); stroke-linecap: round; stroke-linejoin: round; transform-origin: 204.38px 338.166px;" id="eluuje58vswac" class="animable"></path><path d="M191,273.23a28.46,28.46,0,0,0-13.4,22.46c-.86,15.55,0,31.54-.86,40.17s-6.91,15.56-2.16,15.12,15.55-17.71,19.44-17.71,5.18,8.21,6.91,10.8,7.8,3.68,7.8,3.68,5.59-6.7,5.59-8.86-1.73-9.51,3-8.64,15.11,17.28,15.55,12.09-4.76-13-4.76-25.48-6-27.22-14.68-36.29S199.84,272.56,191,273.23Z" style="fill: rgb(255, 255, 255); transform-origin: 202.838px 311.903px;" id="eltw7n0iwvohk" class="animable"></path><g style="clip-path: url(&quot;#freepik--clip-path-2--inject-109&quot;); transform-origin: 182.475px 311px;" id="el2m5k1u3rkak" class="animable"><path d="M192.06,273.14l-1.07.09a28.46,28.46,0,0,0-13.4,22.46c-.86,15.55,0,31.54-.86,40.17-.56,5.56-3.25,10.4-3.84,13,3.17-2.33,13.21-13.05,16.05-18.73,3.2-6.39-3.66-22.84-3.66-30.15s6.4-17.36,6.4-17.36Z" style="fill: rgb(253, 199, 1); transform-origin: 182.475px 311px;" id="elyn4de2744g8" class="animable"></path><g id="elepldfjmb3dk"><path d="M192.06,273.14l-1.07.09a28.46,28.46,0,0,0-13.4,22.46c-.86,15.55,0,31.54-.86,40.17-.56,5.56-3.25,10.4-3.84,13,3.17-2.33,13.21-13.05,16.05-18.73,3.2-6.39-3.66-22.84-3.66-30.15s6.4-17.36,6.4-17.36Z" style="fill: rgb(255, 255, 255); opacity: 0.5; transform-origin: 182.475px 311px;" class="animable"></path></g></g><path d="M191,273.23a28.46,28.46,0,0,0-13.4,22.46c-.86,15.55,0,31.54-.86,40.17s-6.91,15.56-2.16,15.12,15.55-17.71,19.44-17.71,5.18,8.21,6.91,10.8,7.8,3.68,7.8,3.68,5.59-6.7,5.59-8.86-1.73-9.51,3-8.64,15.11,17.28,15.55,12.09-4.76-13-4.76-25.48-6-27.22-14.68-36.29S199.84,272.56,191,273.23Z" style="fill: none; stroke: rgb(38, 50, 56); stroke-linecap: round; stroke-linejoin: round; transform-origin: 202.838px 311.903px;" id="elr4ctuacurd" class="animable"></path><path d="M194.59,273.34a66.73,66.73,0,0,0-5.18,25c0,13.66,7.06,27.79,9.89,34.38s9.42,15.07,9.42,15.07-.48-17.42,3.76-25.9,8-14.6,8-14.6-5.18-5.18-12.72-16.95S194.59,273.34,194.59,273.34Z" style="fill: rgb(255, 255, 255); transform-origin: 204.945px 310.565px;" id="ellju0wae2ezs" class="animable"></path><g style="clip-path: url(&quot;#freepik--clip-path-3--inject-109&quot;); transform-origin: 203.31px 293.665px;" id="elzxd92zyc8qp" class="animable"><path d="M217.21,312.9l-1.77-11.64c-2.07-2.68-4.68-6.3-7.67-11-7.53-11.78-13.18-17-13.18-17a66.73,66.73,0,0,0-5.18,25A56.44,56.44,0,0,0,192,314.07l25-.8Z" style="fill: rgb(253, 199, 1); transform-origin: 203.31px 293.665px;" id="el1dxc9kk6uav" class="animable"></path><g id="elmxhpb7wptyd"><path d="M217.21,312.9l-1.77-11.64c-2.07-2.68-4.68-6.3-7.67-11-7.53-11.78-13.18-17-13.18-17a66.73,66.73,0,0,0-5.18,25A56.44,56.44,0,0,0,192,314.07l25-.8Z" style="fill: rgb(255, 255, 255); opacity: 0.5; transform-origin: 203.31px 293.665px;" class="animable"></path></g><path d="M207.77,290.3c-7.53-11.78-13.18-17-13.18-17a66.73,66.73,0,0,0-5.18,25,48.56,48.56,0,0,0,.8,8.4l21.08.65,5.15-4.81A148.6,148.6,0,0,1,207.77,290.3Z" style="fill: rgb(38, 50, 56); stroke: rgb(38, 50, 56); stroke-linecap: round; stroke-linejoin: round; transform-origin: 202.925px 290.325px;" id="elyjn9y4q5opk" class="animable"></path></g><path d="M194.59,273.34a66.73,66.73,0,0,0-5.18,25c0,13.66,7.06,27.79,9.89,34.38s9.42,15.07,9.42,15.07-.48-17.42,3.76-25.9,8-14.6,8-14.6-5.18-5.18-12.72-16.95S194.59,273.34,194.59,273.34Z" style="fill: none; stroke: rgb(38, 50, 56); stroke-linecap: round; stroke-linejoin: round; transform-origin: 204.945px 310.565px;" id="elyjtsv65vmoh" class="animable"></path><path d="M162.91,303.47s9.5-22.9,25.05-28.51" style="fill: none; stroke: rgb(38, 50, 56); stroke-linecap: round; stroke-linejoin: round; transform-origin: 175.435px 289.215px;" id="el5q4444wc98" class="animable"></path><path d="M121.87,322.47s13,21.17,14.69,39.31" style="fill: none; stroke: rgb(38, 50, 56); stroke-linecap: round; stroke-linejoin: round; transform-origin: 129.215px 342.125px;" id="elcg9x5taatcu" class="animable"></path><path d="M137.85,341.91s4.32,27.22,4.32,41a116.11,116.11,0,0,0,2.16,23.33" style="fill: none; stroke: rgb(38, 50, 56); stroke-linecap: round; stroke-linejoin: round; transform-origin: 141.09px 374.075px;" id="elsegopizy72s" class="animable"></path><path d="M141.74,376.9a136.59,136.59,0,0,0,3.46-32.4" style="fill: none; stroke: rgb(38, 50, 56); stroke-linecap: round; stroke-linejoin: round; transform-origin: 143.476px 360.7px;" id="el0kzcdwpxxxce" class="animable"></path><path d="M260.1,342.34s1.3,15.56,4.32,34.56,4.75,28.51,4.75,28.51" style="fill: none; stroke: rgb(38, 50, 56); stroke-linecap: round; stroke-linejoin: round; transform-origin: 264.635px 373.875px;" id="elc6r39az666q" class="animable"></path><path d="M189.64,379.19s-9.15,18.63-10.5,21.34-3.39,7.45-3.39,7.45H192s9.14-6.1,10.16-6.44,6.77,0,10.83-1.69,8.13-6.1,12.19-7.11,9.48-2.71,11.18-2.71,7.45,1.69,11.17,1.69S256,388,253,386.31s-5.42-.68-9.48-2.71-5.42-2.71-9.48-2-7.45-1.69-17.27-3.72S195.73,375.13,189.64,379.19Z" style="fill: rgb(255, 255, 255); stroke: rgb(38, 50, 56); stroke-linecap: round; stroke-linejoin: round; transform-origin: 214.849px 392.113px;" id="elnskg2e0jcx" class="animable"></path><path d="M218,368.79s5.33-4.54,9.71-2.35,2.35,16.29,3.45,21.93,2.35,8.61-.47,8.93-3.92-1.88-6.11-6.89S218,368.79,218,368.79Z" style="fill: rgb(255, 255, 255); stroke: rgb(38, 50, 56); stroke-linecap: round; stroke-linejoin: round; transform-origin: 225.205px 381.587px;" id="elg43muywf1q" class="animable"></path><path d="M205,371.61s7.05-6.27,10.18-6.27,5.64,11.12,8,16S229,392,227.56,393.54s-4.39,2.19-6.9-.47-8-14.41-9.55-16.29A48.21,48.21,0,0,0,205,371.61Z" style="fill: rgb(255, 255, 255); stroke: rgb(38, 50, 56); stroke-linecap: round; stroke-linejoin: round; transform-origin: 216.45px 380.11px;" id="eloexhulizaud" class="animable"></path><path d="M197.79,373.8s.47-2.19,7.21-2.19,12.53,9.4,16.6,11.59,2.82,3.13-.15,4.54-4.86-.15-10.81-3.44S197.79,373.8,197.79,373.8Z" style="fill: rgb(255, 255, 255); stroke: rgb(38, 50, 56); stroke-linecap: round; stroke-linejoin: round; transform-origin: 210.99px 379.935px;" id="elqq643udbav" class="animable"></path><path d="M190.31,389.35l4.75-7.79a15,15,0,0,1,6.09,2.71c2.37,2,6.77,6.1,12.19,6.1s7.11-1.69,5.08-3.39-8.13-4.74-12.53-7.79-7.79-8.12-11.17-7.11S189,379.53,185.24,388" style="fill: rgb(255, 255, 255); stroke: rgb(38, 50, 56); stroke-linecap: round; stroke-linejoin: round; transform-origin: 202.245px 381.16px;" id="elus0yzpd9yg" class="animable"></path><path d="M266.09,240.16s-1.31,19.35-3.4,26.15-5,27.73-11.25,36.88-14.38,17-23.54,17.53-21.44-15.7-28.51-26.16-7.84-20.92-10.2-31.12-2.87-22,.79-31.13,22-20.4,37.4-19.09,34.78,9.42,38.71,15.43A10.51,10.51,0,0,1,266.09,240.16Z" style="fill: rgb(255, 255, 255); transform-origin: 227.566px 266.924px;" id="eluo0fij0zyd" class="animable"></path><g style="clip-path: url(&quot;#freepik--clip-path-4--inject-109&quot;); transform-origin: 212.87px 266.945px;" id="elqye7sx3lhx" class="animable"><path d="M190,232.31c-3.66,9.16-3.14,20.93-.79,31.13s3.14,20.66,10.2,31.12,19.36,26.68,28.51,26.16a21.3,21.3,0,0,0,10.47-3.8l-4.65.45c-9.6.91-14.17-5.48-20.11-17.82s-2.28-19.64-4.57-21.93-2.28-18.73-2.28-18.73,1.83-7.31,2.74-10,10.51-6.4,10.51-6.4,0,6.85,6.58,6.35,11.24-7.72,11.24-7.72l-.92-26.33a70.78,70.78,0,0,0-9.53-1.52C212,211.91,193.64,223.16,190,232.31Z" style="fill: rgb(253, 199, 1); transform-origin: 212.87px 266.945px;" id="eltb6xjovaws" class="animable"></path><g id="elh20bbxs4al"><path d="M190,232.31c-3.66,9.16-3.14,20.93-.79,31.13s3.14,20.66,10.2,31.12,19.36,26.68,28.51,26.16a21.3,21.3,0,0,0,10.47-3.8l-4.65.45c-9.6.91-14.17-5.48-20.11-17.82s-2.28-19.64-4.57-21.93-2.28-18.73-2.28-18.73,1.83-7.31,2.74-10,10.51-6.4,10.51-6.4,0,6.85,6.58,6.35,11.24-7.72,11.24-7.72l-.92-26.33a70.78,70.78,0,0,0-9.53-1.52C212,211.91,193.64,223.16,190,232.31Z" style="fill: rgb(255, 255, 255); opacity: 0.5; transform-origin: 212.87px 266.945px;" class="animable"></path></g></g><path d="M266.09,240.16s-1.31,19.35-3.4,26.15-5,27.73-11.25,36.88-14.38,17-23.54,17.53-21.44-15.7-28.51-26.16-7.84-20.92-10.2-31.12-2.87-22,.79-31.13,22-20.4,37.4-19.09,34.78,9.42,38.71,15.43A10.51,10.51,0,0,1,266.09,240.16Z" style="fill: none; stroke: rgb(38, 50, 56); stroke-linecap: round; stroke-linejoin: round; transform-origin: 227.566px 266.924px;" id="el760jo445tds" class="animable"></path><path d="M239.67,266.05s.26,13.34,7.06,16.74a1.59,1.59,0,0,1,.79,2.36c-.79,1.83-6.8,2.87-11-.27" style="fill: none; stroke: rgb(38, 50, 56); stroke-linecap: round; stroke-linejoin: round; transform-origin: 242.148px 276.47px;" id="el2ea76yz9ubq" class="animable"></path><path d="M245.45,254.72a1.5,1.5,0,0,1-.95-2.66c.24-.2,6-4.84,15.16-1.63a1.5,1.5,0,1,1-1,2.83c-7.57-2.66-12.21,1.08-12.25,1.12A1.5,1.5,0,0,1,245.45,254.72Z" style="fill: rgb(38, 50, 56); transform-origin: 252.306px 252.011px;" id="elvurkt7wz5rq" class="animable"></path><path d="M229.69,252.89a1.49,1.49,0,0,1-1.3-.74c-.16-.27-3.76-6.19-10.84-5.21a1.5,1.5,0,0,1-1.69-1.28,1.52,1.52,0,0,1,1.28-1.7c9.12-1.26,13.65,6.35,13.84,6.68a1.5,1.5,0,0,1-.54,2.05A1.48,1.48,0,0,1,229.69,252.89Z" style="fill: rgb(38, 50, 56); transform-origin: 223.515px 248.355px;" id="eliwiem4q0cg" class="animable"></path><line x1="234.15" y1="299.25" x2="238.38" y2="299.25" style="fill: none; stroke: rgb(38, 50, 56); stroke-linecap: round; stroke-linejoin: round; transform-origin: 236.265px 299.25px;" id="elyp6224icqk" class="animable"></line><path d="M195.73,202s-17,5.5-18.31,12.3,7.33,30.6,7.07,33.47-2.88,5.24,0,9.42,8.1,10.46,10.2,7.06-.79-8.37,2.61-10.46,8.11-5.49,5.49-9.94-1.3-11,4.19-11.77,10.2-4.44,7.32-.26-11.24,14.39-6.8,15.17,22-11,22-11-6,12-2.88,12.81,27.73-15.43,27.73-15.43,11.77,15.43,14.12,14.38.79-9.67.79-9.67,1.83,11.51,5.49,12,8.63-5.76,7.06-9.68S277.6,231,277.6,231s5.23-1.31,7.32-3.67,1.83-2.61-2.62-3.4-7.84-5.75-12-10.2-11-10.46-11-10.46,7.84,3.4,3.66-.52-26.42-12.82-38.45-12.82S208,196.22,208,196.22s2.09-7.85-.27-6.8-5,7.32-5,7.32-5.49-1.57-8.36.27-3.67,3.66-1.31,3.66a13.66,13.66,0,0,1,3.92.52Z" style="fill: rgb(38, 50, 56); transform-origin: 231.734px 227.273px;" id="eltw1ketoldsr" class="animable"></path><g style="clip-path: url(&quot;#freepik--clip-path-5--inject-109&quot;); transform-origin: 235.709px 244.945px;" id="elv485gsf7a" class="animable"><g id="elg02ocvyasev"><g style="opacity: 0.2; transform-origin: 235.709px 244.945px;" class="animable"><path d="M194.69,264.22c2.09-3.4-.79-8.37,2.61-10.46s8.11-5.49,5.49-9.94-1.3-11,4.19-11.77c4.13-.59,7.82-2.81,8.17-2.08,1.77-2.44,2.53-4.3,0-3.55-4.86,1.46-19.92,3.89-18.47,8.75s2.43,7.28-1.45,8.74-3.89,4.86-3.89,8.75c0,3.32-1.57,8.83-2,10.36C191.45,265,193.54,266.09,194.69,264.22Z" style="fill: rgb(255, 255, 255); transform-origin: 203.057px 245.719px;" id="elfu0hkrq7lja" class="animable"></path><path d="M269.23,238.07l.34,4.87s.07.29.16.77a33,33,0,0,0-.46-5.37c.31,1.73,2.12,11.28,5.45,11.76,3.66.52,8.63-5.76,7.06-9.68-.34-.84-.73-1.76-1.12-2.68-1.21,1.89-2.87,3.74-4.77,3.74C272,241.48,269.23,238.07,269.23,238.07Z" style="fill: rgb(255, 255, 255); transform-origin: 275.654px 243.935px;" id="elbjg24u6c37w" class="animable"></path><path d="M264.06,244.81c-3.22-7.24-6.75-16.63-8.58-19.36-2.91-4.37-13.12,11.66-21.86,17-3.57,2.18-6.14,3.13-7.77,3.15-.32,1.67-.21,3,.74,3.19,3.14.79,27.73-15.43,27.73-15.43A142.79,142.79,0,0,0,264.06,244.81Z" style="fill: rgb(255, 255, 255); transform-origin: 244.874px 236.761px;" id="elu1105u5fcaq" class="animable"></path><path d="M206.47,244.13c-.48,1.51-.3,2.59,1,2.83,3.36.59,14.16-6,19.26-9.22,2.89-3.55,6.47-5.74,6.86-8.89.48-3.89-18,11.66-24.29,14.58A5.4,5.4,0,0,1,206.47,244.13Z" style="fill: rgb(255, 255, 255); transform-origin: 219.913px 237.613px;" id="elg8xoeo4zqil" class="animable"></path></g></g></g><path d="M195.73,202s-17,5.5-18.31,12.3,7.33,30.6,7.07,33.47-2.88,5.24,0,9.42,8.1,10.46,10.2,7.06-.79-8.37,2.61-10.46,8.11-5.49,5.49-9.94-1.3-11,4.19-11.77,10.2-4.44,7.32-.26-11.24,14.39-6.8,15.17,22-11,22-11-6,12-2.88,12.81,27.73-15.43,27.73-15.43,11.77,15.43,14.12,14.38.79-9.67.79-9.67,1.83,11.51,5.49,12,8.63-5.76,7.06-9.68S277.6,231,277.6,231s5.23-1.31,7.32-3.67,1.83-2.61-2.62-3.4-7.84-5.75-12-10.2-11-10.46-11-10.46,7.84,3.4,3.66-.52-26.42-12.82-38.45-12.82S208,196.22,208,196.22s2.09-7.85-.27-6.8-5,7.32-5,7.32-5.49-1.57-8.36.27-3.67,3.66-1.31,3.66a13.66,13.66,0,0,1,3.92.52Z" style="fill: none; stroke: rgb(38, 50, 56); stroke-linecap: round; stroke-linejoin: round; transform-origin: 231.734px 227.273px;" id="elfpui2m6imh9" class="animable"></path><path d="M234.39,255.72s-3.82-4.11-14.1-3.82-17.63,2.06-19.68,3.24-.88,2.64-.3,4.7,2.06,11.74,4.41,15.56,8.52,7.05,12.63,7.05,6.46-.88,10.87-4.11,7.34-15,7.64-15.86,0-2.64,2.93-1.76,3.23,13.8,4.12,16.45,6.75,6.16,11.45,6.16,9.11-2.35,12.93-9.1A21.43,21.43,0,0,0,269.93,261s4.11-3.23.88-4.41-14.34-4.26-21.44-2.05C240.85,257.19,236.44,256.6,234.39,255.72Z" style="fill: rgb(38, 50, 56); transform-origin: 235.748px 267.608px;" id="elg09hmjxwdyd" class="animable"></path><path d="M202.08,255.43l-19.69,2.64v2.35l19.39-1.17S200,256.31,202.08,255.43Z" style="fill: rgb(38, 50, 56); transform-origin: 192.235px 257.925px;" id="elp5aun14ozo" class="animable"></path><path d="M254.35,280.47c-5.76,0-8.7-3.06-9.34-8.37-.77-6.36-1.45-10.79-3.45-12.92a45.41,45.41,0,0,0,8.66-1.9,17.68,17.68,0,0,1,5.07-.64,48.51,48.51,0,0,1,12.87,2.11l-1.35,1.08.3,1.69a18.78,18.78,0,0,1-2.32,11.3C260.92,279.68,257,280.47,254.35,280.47Zm-37-.88c-3,0-8.31-2.63-10.19-5.69-1.51-2.44-2.77-8.62-3.45-11.93-.27-1.34-.47-2.31-.64-2.92s-.31-.95-.47-1.39l-.09-.25c2.31-1,8.85-2.38,17.86-2.64h1c7.89,0,10.93,2.88,11,2.91l.41.45.56.24a12.34,12.34,0,0,0,1.17.41,5,5,0,0,0-1.27,2.67l0,.19c0,.05-.09.29-.19.65-2.92,10.31-5.45,13.05-6.41,13.75C222.37,279.07,220.59,279.59,217.35,279.59Z" style="fill: rgb(253, 199, 1); transform-origin: 235.335px 267.62px;" id="elqdd195p650e" class="animable"></path><path d="M210.43,259.55h-1.51a.38.38,0,0,1-.37-.37.37.37,0,0,1,.37-.37h1.51a.37.37,0,0,1,.37.37A.38.38,0,0,1,210.43,259.55Zm.37,1.35a.37.37,0,0,0-.37-.37h-1.51a.37.37,0,0,0-.37.37.38.38,0,0,0,.37.37h1.51A.38.38,0,0,0,210.8,260.9Zm0,1.72a.38.38,0,0,0-.37-.37h-1.51a.38.38,0,0,0-.37.37.37.37,0,0,0,.37.37h1.51A.37.37,0,0,0,210.8,262.62Zm0,1.72a.38.38,0,0,0-.37-.37h-1.51a.38.38,0,0,0-.37.37.37.37,0,0,0,.37.37h1.51A.37.37,0,0,0,210.8,264.34Zm0,1.72a.38.38,0,0,0-.37-.37h-1.51a.38.38,0,0,0-.37.37.37.37,0,0,0,.37.37h1.51A.37.37,0,0,0,210.8,266.06Zm0,1.72a.38.38,0,0,0-.37-.37h-1.51a.38.38,0,0,0-.37.37.37.37,0,0,0,.37.37h1.51A.37.37,0,0,0,210.8,267.78Zm0,1.72a.38.38,0,0,0-.37-.37h-1.51a.38.38,0,0,0,0,.75h1.51A.38.38,0,0,0,210.8,269.5Zm0,1.72a.38.38,0,0,0-.37-.37h-1.51a.38.38,0,0,0,0,.75h1.51A.38.38,0,0,0,210.8,271.22Zm5.63-12a.36.36,0,0,0-.37-.37h-3.95a.36.36,0,0,0-.37.37.37.37,0,0,0,.37.37h3.95A.37.37,0,0,0,216.43,259.18Zm0,1.72a.36.36,0,0,0-.37-.37h-3.95a.36.36,0,0,0-.37.37.37.37,0,0,0,.37.37h3.95A.37.37,0,0,0,216.43,260.9Zm0,1.72a.37.37,0,0,0-.37-.37h-3.95a.37.37,0,0,0-.37.37.36.36,0,0,0,.37.37h3.95A.36.36,0,0,0,216.43,262.62Zm0,1.72a.37.37,0,0,0-.37-.37h-3.95a.37.37,0,0,0-.37.37.36.36,0,0,0,.37.37h3.95A.36.36,0,0,0,216.43,264.34Zm0,1.72a.37.37,0,0,0-.37-.37h-3.95a.37.37,0,0,0-.37.37.36.36,0,0,0,.37.37h3.95A.36.36,0,0,0,216.43,266.06Zm4.74,1.72a.38.38,0,0,0-.38-.37h-3.95a.38.38,0,0,0-.37.37.37.37,0,0,0,.37.37h3.95A.37.37,0,0,0,221.17,267.78Zm0,1.72a.38.38,0,0,0-.38-.37h-3.95a.38.38,0,0,0,0,.75h3.95A.38.38,0,0,0,221.17,269.5Zm0,1.72a.38.38,0,0,0-.38-.37h-3.95a.38.38,0,0,0,0,.75h3.95A.38.38,0,0,0,221.17,271.22Zm-3-12a.43.43,0,0,0-.43-.43.43.43,0,1,0,0,.86A.43.43,0,0,0,218.17,259.18Zm1.29,0a.43.43,0,0,0-.43-.43.43.43,0,1,0,0,.86A.43.43,0,0,0,219.46,259.18Zm1.29,0a.43.43,0,0,0-.43-.43.43.43,0,0,0,0,.86A.43.43,0,0,0,220.75,259.18Zm1.3,0a.44.44,0,1,0-.44.43A.44.44,0,0,0,222.05,259.18Zm1.29,0a.43.43,0,0,0-.43-.43.43.43,0,1,0,0,.86A.43.43,0,0,0,223.34,259.18Zm1.29,0a.43.43,0,0,0-.43-.43.43.43,0,1,0,0,.86A.43.43,0,0,0,224.63,259.18Zm-6.46,3.44a.43.43,0,0,0-.43-.43.43.43,0,0,0,0,.86A.43.43,0,0,0,218.17,262.62Zm1.29,0a.43.43,0,0,0-.43-.43.43.43,0,0,0,0,.86A.43.43,0,0,0,219.46,262.62Zm1.29,0a.43.43,0,0,0-.43-.43.43.43,0,0,0,0,.86A.43.43,0,0,0,220.75,262.62Zm1.3,0a.44.44,0,1,0-.44.43A.44.44,0,0,0,222.05,262.62Zm1.29,0a.43.43,0,0,0-.43-.43.43.43,0,0,0,0,.86A.43.43,0,0,0,223.34,262.62Zm1.29,0a.43.43,0,0,0-.43-.43.43.43,0,1,0,0,.86A.43.43,0,0,0,224.63,262.62Zm-2,4.95a.43.43,0,1,0-.43.43A.43.43,0,0,0,222.58,267.57Zm1.29,0a.43.43,0,0,0-.43-.43.43.43,0,0,0,0,.86A.43.43,0,0,0,223.87,267.57Zm1.29,0a.43.43,0,0,0-.43-.43.43.43,0,1,0,0,.86A.43.43,0,0,0,225.16,267.57Zm1.29,0a.43.43,0,0,0-.43-.43.43.43,0,1,0,0,.86A.43.43,0,0,0,226.45,267.57Zm1.3,0a.44.44,0,1,0-.43.43A.43.43,0,0,0,227.75,267.57Zm1.29,0a.43.43,0,0,0-.43-.43.43.43,0,1,0,0,.86A.43.43,0,0,0,229,267.57Zm-6.46,3.55a.43.43,0,0,0-.86,0,.43.43,0,0,0,.86,0Zm1.29,0a.43.43,0,0,0-.43-.43.43.43,0,0,0-.43.43.44.44,0,0,0,.43.43A.43.43,0,0,0,223.87,271.12Zm1.29,0a.43.43,0,0,0-.43-.43.43.43,0,0,0-.43.43.44.44,0,0,0,.43.43A.43.43,0,0,0,225.16,271.12Zm1.29,0a.43.43,0,0,0-.43-.43.43.43,0,0,0-.43.43.44.44,0,0,0,.43.43A.43.43,0,0,0,226.45,271.12Zm1.3,0a.44.44,0,0,0-.87,0,.44.44,0,0,0,.87,0Zm1.29,0a.43.43,0,0,0-.43-.43.43.43,0,0,0-.43.43.43.43,0,0,0,.43.43A.44.44,0,0,0,229,271.12Z" style="fill: rgb(38, 50, 56); transform-origin: 218.82px 265.225px;" id="elsevxofcrd2o" class="animable"></path><path d="M247.21,259.55h-1.5a.38.38,0,0,1-.38-.37.37.37,0,0,1,.38-.37h1.5a.36.36,0,0,1,.37.37A.37.37,0,0,1,247.21,259.55Zm.37,1.35a.36.36,0,0,0-.37-.37h-1.5a.37.37,0,0,0-.38.37.38.38,0,0,0,.38.37h1.5A.37.37,0,0,0,247.58,260.9Zm0,1.72a.37.37,0,0,0-.37-.37h-1.5a.38.38,0,0,0-.38.37.37.37,0,0,0,.38.37h1.5A.36.36,0,0,0,247.58,262.62Zm0,1.72a.37.37,0,0,0-.37-.37h-1.5a.38.38,0,0,0-.38.37.37.37,0,0,0,.38.37h1.5A.36.36,0,0,0,247.58,264.34Zm0,1.72a.37.37,0,0,0-.37-.37h-1.5a.38.38,0,0,0-.38.37.37.37,0,0,0,.38.37h1.5A.36.36,0,0,0,247.58,266.06Zm0,1.72a.37.37,0,0,0-.37-.37h-1.5a.38.38,0,0,0-.38.37.37.37,0,0,0,.38.37h1.5A.36.36,0,0,0,247.58,267.78Zm0,1.72a.37.37,0,0,0-.37-.37h-1.5a.38.38,0,1,0,0,.75h1.5A.37.37,0,0,0,247.58,269.5Zm0,1.72a.37.37,0,0,0-.37-.37h-1.5a.38.38,0,1,0,0,.75h1.5A.37.37,0,0,0,247.58,271.22Zm5.64-12a.37.37,0,0,0-.38-.37h-4a.37.37,0,0,0-.37.37.38.38,0,0,0,.37.37h4A.38.38,0,0,0,253.22,259.18Zm0,1.72a.37.37,0,0,0-.38-.37h-4a.37.37,0,0,0-.37.37.38.38,0,0,0,.37.37h4A.38.38,0,0,0,253.22,260.9Zm0,1.72a.38.38,0,0,0-.38-.37h-4a.38.38,0,0,0-.37.37.37.37,0,0,0,.37.37h4A.37.37,0,0,0,253.22,262.62Zm0,1.72a.38.38,0,0,0-.38-.37h-4a.38.38,0,0,0-.37.37.37.37,0,0,0,.37.37h4A.37.37,0,0,0,253.22,264.34Zm0,1.72a.38.38,0,0,0-.38-.37h-4a.38.38,0,0,0-.37.37.37.37,0,0,0,.37.37h4A.37.37,0,0,0,253.22,266.06Zm4.73,1.72a.38.38,0,0,0-.37-.37h-4a.38.38,0,0,0-.37.37.37.37,0,0,0,.37.37h4A.37.37,0,0,0,258,267.78Zm0,1.72a.38.38,0,0,0-.37-.37h-4a.38.38,0,0,0,0,.75h4A.38.38,0,0,0,258,269.5Zm0,1.72a.38.38,0,0,0-.37-.37h-4a.38.38,0,0,0,0,.75h4A.38.38,0,0,0,258,271.22Zm-3-12a.43.43,0,0,0-.43-.43.43.43,0,0,0,0,.86A.43.43,0,0,0,255,259.18Zm1.3,0a.43.43,0,0,0-.43-.43.43.43,0,0,0,0,.86A.43.43,0,0,0,256.25,259.18Zm1.29,0a.43.43,0,0,0-.43-.43.43.43,0,1,0,0,.86A.43.43,0,0,0,257.54,259.18Zm1.29,0a.43.43,0,0,0-.43-.43.43.43,0,1,0,0,.86A.43.43,0,0,0,258.83,259.18Zm1.29,0a.43.43,0,0,0-.43-.43.43.43,0,0,0,0,.86A.43.43,0,0,0,260.12,259.18Zm1.29,0a.43.43,0,1,0-.43.43A.43.43,0,0,0,261.41,259.18ZM255,262.62a.43.43,0,0,0-.43-.43.43.43,0,0,0,0,.86A.43.43,0,0,0,255,262.62Zm1.3,0a.43.43,0,0,0-.43-.43.43.43,0,0,0,0,.86A.43.43,0,0,0,256.25,262.62Zm1.29,0a.43.43,0,0,0-.43-.43.43.43,0,0,0,0,.86A.43.43,0,0,0,257.54,262.62Zm1.29,0a.43.43,0,0,0-.43-.43.43.43,0,1,0,0,.86A.43.43,0,0,0,258.83,262.62Zm1.29,0a.43.43,0,0,0-.43-.43.43.43,0,0,0,0,.86A.43.43,0,0,0,260.12,262.62Zm1.29,0a.43.43,0,1,0-.43.43A.43.43,0,0,0,261.41,262.62Zm-2.05,4.95a.43.43,0,0,0-.43-.43.43.43,0,0,0,0,.86A.43.43,0,0,0,259.36,267.57Zm1.3,0a.44.44,0,1,0-.44.43A.44.44,0,0,0,260.66,267.57Zm1.29,0a.43.43,0,0,0-.43-.43.43.43,0,1,0,0,.86A.43.43,0,0,0,262,267.57Zm1.29,0a.43.43,0,0,0-.43-.43.43.43,0,0,0,0,.86A.43.43,0,0,0,263.24,267.57Zm1.29,0a.43.43,0,0,0-.43-.43.43.43,0,1,0,0,.86A.43.43,0,0,0,264.53,267.57Zm1.29,0a.43.43,0,1,0-.43.43A.43.43,0,0,0,265.82,267.57Zm-6.46,3.55a.43.43,0,0,0-.43-.43.43.43,0,0,0-.43.43.44.44,0,0,0,.43.43A.43.43,0,0,0,259.36,271.12Zm1.3,0a.44.44,0,0,0-.87,0,.44.44,0,0,0,.87,0Zm1.29,0a.43.43,0,0,0-.43-.43.43.43,0,0,0-.43.43.43.43,0,0,0,.43.43A.44.44,0,0,0,262,271.12Zm1.29,0a.43.43,0,0,0-.43-.43.43.43,0,0,0-.43.43.43.43,0,0,0,.43.43A.44.44,0,0,0,263.24,271.12Zm1.29,0a.43.43,0,0,0-.43-.43.43.43,0,0,0-.43.43.43.43,0,0,0,.43.43A.44.44,0,0,0,264.53,271.12Zm1.29,0a.43.43,0,0,0-.86,0,.43.43,0,0,0,.86,0Z" style="fill: rgb(38, 50, 56); transform-origin: 255.569px 265.226px;" id="el8e1ajvwsb2d" class="animable"></path><path d="M195.73,269.71s-6.27-14.64-11.77-14.64-5.23,12.29-1.83,18.83,10.73,9.15,12.82,5.23" style="fill: rgb(255, 255, 255); transform-origin: 187.706px 268.021px;" id="elg4hpto7wd2l" class="animable"></path><g style="clip-path: url(&quot;#freepik--clip-path-6--inject-109&quot;); transform-origin: 187.706px 268.021px;" id="elcyzi0ufgwd9" class="animable"><path d="M195.73,269.71s-6.27-14.64-11.77-14.64-5.23,12.29-1.83,18.83,10.73,9.15,12.82,5.23" style="fill: rgb(253, 199, 1); transform-origin: 187.706px 268.021px;" id="elcuwhq9zthdd" class="animable"></path><g id="elao9wkd80l95"><path d="M195.73,269.71s-6.27-14.64-11.77-14.64-5.23,12.29-1.83,18.83,10.73,9.15,12.82,5.23" style="fill: rgb(255, 255, 255); opacity: 0.5; transform-origin: 187.706px 268.021px;" class="animable"></path></g></g><path d="M195.73,269.71s-6.27-14.64-11.77-14.64-5.23,12.29-1.83,18.83,10.73,9.15,12.82,5.23" style="fill: none; stroke: rgb(38, 50, 56); stroke-linecap: round; stroke-linejoin: round; transform-origin: 187.706px 268.021px;" id="el0v20ev8oscd" class="animable"></path><path d="M182.14,264s-.8-6.37,2.23-5.25,6.53,11.15,6.53,11.15-2.55-2.71-2.23-.16a2.89,2.89,0,0,0,2.55,2.7" style="fill: none; stroke: rgb(38, 50, 56); stroke-linecap: round; stroke-linejoin: round; transform-origin: 186.632px 265.529px;" id="elm8616ybie7q" class="animable"></path></g><g id="freepik--Device--inject-109" class="animable" style="transform-origin: 302.53px 360.705px;"><polygon points="405.51 315.13 281.54 315.13 260.37 400.23 384.35 400.23 405.51 315.13" style="fill: rgb(38, 50, 56); stroke: rgb(38, 50, 56); stroke-linecap: round; stroke-linejoin: round; transform-origin: 332.94px 357.68px;" id="ele9wuljw7uik" class="animable"></polygon><rect x="198.17" y="400.23" width="184.88" height="6.05" style="fill: rgb(38, 50, 56); stroke: rgb(38, 50, 56); stroke-linecap: round; stroke-linejoin: round; transform-origin: 290.61px 403.255px;" id="el2tmu5d68un2" class="animable"></rect><rect x="260.37" y="400.23" width="123.98" height="6.05" style="fill: rgb(253, 199, 1); stroke: rgb(38, 50, 56); stroke-linecap: round; stroke-linejoin: round; transform-origin: 322.36px 403.255px;" id="eluia4pz0ue2g" class="animable"></rect><polygon points="406.89 315.13 282.91 315.13 261.74 400.23 385.72 400.23 406.89 315.13" style="fill: rgb(253, 199, 1); stroke: rgb(38, 50, 56); stroke-linecap: round; stroke-linejoin: round; transform-origin: 334.315px 357.68px;" id="elltkackh5ip" class="animable"></polygon><ellipse cx="333.61" cy="359.3" rx="17.68" ry="17.51" style="fill: rgb(38, 50, 56); transform-origin: 333.61px 359.3px;" id="eltueoeslfb3" class="animable"></ellipse><path d="M319.24,362a1.5,1.5,0,0,1-.8-.87,1.72,1.72,0,0,1,0-1.28,1.78,1.78,0,0,1,1-1l7.49-3c.25-.11.51,0,.79.33a1.71,1.71,0,0,1,.43,1,.94.94,0,0,1-.51.87l-6.28,2.44,6.3,2.53a.89.89,0,0,1,.39.82,1.73,1.73,0,0,1-.36,1c-.24.32-.48.43-.73.33Z" style="fill: rgb(255, 255, 255); transform-origin: 323.234px 360.507px;" id="ellgindofcd99" class="animable"></path><path d="M330.93,366.19a.85.85,0,0,1-.32-.69,5.48,5.48,0,0,1,.24-1.06l4.16-12q.39-1.35,1.11-1.35a1.08,1.08,0,0,1,.72.26,1,1,0,0,1,.29.75,3.4,3.4,0,0,1-.23,1l-4.35,12.7a.89.89,0,0,1-.91.68A1.1,1.1,0,0,1,330.93,366.19Z" style="fill: rgb(255, 255, 255); transform-origin: 333.87px 358.785px;" id="elc2vk3a8punw" class="animable"></path><path d="M339.1,364.89a1.73,1.73,0,0,1-.36-1,.89.89,0,0,1,.39-.82l6.3-2.53-6.28-2.44a.94.94,0,0,1-.51-.87,1.71,1.71,0,0,1,.43-1c.28-.33.54-.44.79-.33l7.49,3a1.87,1.87,0,0,1,.88.72,1.64,1.64,0,0,1,.29.94,1.91,1.91,0,0,1-.26.89,1.37,1.37,0,0,1-.66.6l-7.77,3.23C339.58,365.32,339.34,365.21,339.1,364.89Z" style="fill: rgb(255, 255, 255); transform-origin: 343.58px 360.573px;" id="elr70agbjigc" class="animable"></path></g><g id="freepik--Desk--inject-109" class="animable" style="transform-origin: 252.335px 407.94px;"><rect x="51.67" y="404.94" width="401.33" height="6" style="fill: rgb(255, 255, 255); stroke: rgb(38, 50, 56); stroke-linecap: round; stroke-linejoin: round; transform-origin: 252.335px 407.94px;" id="elhwwancqc1w9" class="animable"></rect></g><defs>     <filter id="active" height="200%">         <feMorphology in="SourceAlpha" result="DILATED" operator="dilate" radius="2"></feMorphology>                <feFlood flood-color="#32DFEC" flood-opacity="1" result="PINK"></feFlood>        <feComposite in="PINK" in2="DILATED" operator="in" result="OUTLINE"></feComposite>        <feMerge>            <feMergeNode in="OUTLINE"></feMergeNode>            <feMergeNode in="SourceGraphic"></feMergeNode>        </feMerge>    </filter>    <filter id="hover" height="200%">        <feMorphology in="SourceAlpha" result="DILATED" operator="dilate" radius="2"></feMorphology>                <feFlood flood-color="#ff0000" flood-opacity="0.5" result="PINK"></feFlood>        <feComposite in="PINK" in2="DILATED" operator="in" result="OUTLINE"></feComposite>        <feMerge>            <feMergeNode in="OUTLINE"></feMergeNode>            <feMergeNode in="SourceGraphic"></feMergeNode>        </feMerge>            <feColorMatrix type="matrix" values="0   0   0   0   0                0   1   0   0   0                0   0   0   0   0                0   0   0   1   0 "></feColorMatrix>    </filter></defs><defs><clipPath id="freepik--clip-path--inject-109"><path d="M200.49,270.2s-28.51,6.05-52.27,19.44S105.89,313.83,105.89,319s-9.51,87.26-9.51,87.26h216s-21.17-45.36-24.62-64.8-7.35-32-18.58-44.49S225.11,268.48,200.49,270.2Z" style="fill:#fff;stroke:#263238;stroke-linecap:round;stroke-linejoin:round"></path></clipPath><clipPath id="freepik--clip-path-2--inject-109"><path d="M191,273.23a28.46,28.46,0,0,0-13.4,22.46c-.86,15.55,0,31.54-.86,40.17s-6.91,15.56-2.16,15.12,15.55-17.71,19.44-17.71,5.18,8.21,6.91,10.8,7.8,3.68,7.8,3.68,5.59-6.7,5.59-8.86-1.73-9.51,3-8.64,15.11,17.28,15.55,12.09-4.76-13-4.76-25.48-6-27.22-14.68-36.29S199.84,272.56,191,273.23Z" style="fill:#fff;stroke:#263238;stroke-linecap:round;stroke-linejoin:round"></path></clipPath><clipPath id="freepik--clip-path-3--inject-109"><path d="M194.59,273.34a66.73,66.73,0,0,0-5.18,25c0,13.66,7.06,27.79,9.89,34.38s9.42,15.07,9.42,15.07-.48-17.42,3.76-25.9,8-14.6,8-14.6-5.18-5.18-12.72-16.95S194.59,273.34,194.59,273.34Z" style="fill:#fff;stroke:#263238;stroke-linecap:round;stroke-linejoin:round"></path></clipPath><clipPath id="freepik--clip-path-4--inject-109"><path d="M266.09,240.16s-1.31,19.35-3.4,26.15-5,27.73-11.25,36.88-14.38,17-23.54,17.53-21.44-15.7-28.51-26.16-7.84-20.92-10.2-31.12-2.87-22,.79-31.13,22-20.4,37.4-19.09,34.78,9.42,38.71,15.43A10.51,10.51,0,0,1,266.09,240.16Z" style="fill:#fff;stroke:#263238;stroke-linecap:round;stroke-linejoin:round"></path></clipPath><clipPath id="freepik--clip-path-5--inject-109"><path d="M195.73,202s-17,5.5-18.31,12.3,7.33,30.6,7.07,33.47-2.88,5.24,0,9.42,8.1,10.46,10.2,7.06-.79-8.37,2.61-10.46,8.11-5.49,5.49-9.94-1.3-11,4.19-11.77,10.2-4.44,7.32-.26-11.24,14.39-6.8,15.17,22-11,22-11-6,12-2.88,12.81,27.73-15.43,27.73-15.43,11.77,15.43,14.12,14.38.79-9.67.79-9.67,1.83,11.51,5.49,12,8.63-5.76,7.06-9.68S277.6,231,277.6,231s5.23-1.31,7.32-3.67,1.83-2.61-2.62-3.4-7.84-5.75-12-10.2-11-10.46-11-10.46,7.84,3.4,3.66-.52-26.42-12.82-38.45-12.82S208,196.22,208,196.22s2.09-7.85-.27-6.8-5,7.32-5,7.32-5.49-1.57-8.36.27-3.67,3.66-1.31,3.66a13.66,13.66,0,0,1,3.92.52Z" style="fill:#263238;stroke:#263238;stroke-linecap:round;stroke-linejoin:round"></path></clipPath><clipPath id="freepik--clip-path-6--inject-109"><path d="M195.73,269.71s-6.27-14.64-11.77-14.64-5.23,12.29-1.83,18.83,10.73,9.15,12.82,5.23" style="fill:#fff;stroke:#263238;stroke-linecap:round;stroke-linejoin:round"></path></clipPath></defs></svg>